<svg id="svg" version="1.1" xmlns="http://www.w3.org/2000/svg" xmlns:xlink="http://www.w3.org/1999/xlink" width="400" height="400" viewBox="0, 0, 400,400"><g id="svgg"><path id="path0" d="M187.200 2.800 C 187.200 3.047,185.148 3.200,181.843 3.200 C 177.450 3.200,176.444 3.308,176.255 3.800 C 176.076 4.268,175.277 4.400,172.613 4.400 C 170.604 4.400,169.200 4.565,169.200 4.800 C 169.200 5.028,168.016 5.200,166.449 5.200 C 164.492 5.200,163.554 5.373,163.200 5.800 C 162.872 6.196,161.978 6.400,160.575 6.400 C 159.405 6.400,158.336 6.580,158.200 6.800 C 158.064 7.020,156.995 7.200,155.825 7.200 C 154.422 7.200,153.528 7.404,153.200 7.800 C 152.896 8.166,152.020 8.400,150.951 8.400 C 149.988 8.400,149.200 8.580,149.200 8.800 C 149.200 9.020,148.589 9.200,147.843 9.200 C 147.005 9.200,146.397 9.430,146.255 9.800 C 146.111 10.177,145.499 10.400,144.613 10.400 C 143.836 10.400,143.200 10.580,143.200 10.800 C 143.200 11.020,142.412 11.200,141.449 11.200 C 140.380 11.200,139.504 11.434,139.200 11.800 C 138.926 12.130,138.195 12.400,137.575 12.400 C 136.955 12.400,136.336 12.580,136.200 12.800 C 136.064 13.020,135.445 13.200,134.825 13.200 C 134.205 13.200,133.474 13.470,133.200 13.800 C 132.926 14.130,132.195 14.400,131.575 14.400 C 130.955 14.400,130.336 14.580,130.200 14.800 C 130.064 15.020,129.623 15.200,129.219 15.200 C 128.816 15.200,128.382 15.470,128.255 15.800 C 128.111 16.177,127.499 16.400,126.613 16.400 C 125.836 16.400,125.200 16.580,125.200 16.800 C 125.200 17.020,124.862 17.200,124.449 17.200 C 124.036 17.200,123.474 17.470,123.200 17.800 C 122.926 18.130,122.364 18.400,121.951 18.400 C 121.538 18.400,121.200 18.580,121.200 18.800 C 121.200 19.020,120.589 19.200,119.843 19.200 C 119.005 19.200,118.397 19.430,118.255 19.800 C 118.129 20.130,117.670 20.400,117.236 20.400 C 116.802 20.400,116.336 20.580,116.200 20.800 C 116.064 21.020,115.623 21.200,115.219 21.200 C 114.816 21.200,114.382 21.470,114.255 21.800 C 114.129 22.130,113.670 22.400,113.236 22.400 C 112.802 22.400,112.336 22.580,112.200 22.800 C 112.064 23.020,111.623 23.200,111.219 23.200 C 110.816 23.200,110.382 23.470,110.255 23.800 C 110.129 24.130,109.670 24.400,109.236 24.400 C 108.802 24.400,108.336 24.580,108.200 24.800 C 108.064 25.020,107.623 25.200,107.219 25.200 C 106.816 25.200,106.382 25.470,106.255 25.800 C 106.129 26.130,105.691 26.400,105.282 26.400 C 104.874 26.400,104.117 26.850,103.600 27.400 C 103.083 27.950,102.332 28.400,101.930 28.400 C 101.529 28.400,101.200 28.580,101.200 28.800 C 101.200 29.020,100.862 29.200,100.449 29.200 C 100.036 29.200,99.474 29.470,99.200 29.800 C 98.926 30.130,98.407 30.400,98.046 30.400 C 97.685 30.400,97.052 30.850,96.639 31.400 C 96.226 31.950,95.564 32.400,95.168 32.400 C 94.771 32.400,94.336 32.580,94.200 32.800 C 94.064 33.020,93.685 33.200,93.357 33.200 C 93.030 33.200,92.345 33.650,91.835 34.200 C 91.325 34.750,90.650 35.200,90.335 35.200 C 90.020 35.200,89.059 35.920,88.200 36.800 C 87.341 37.680,86.357 38.400,86.014 38.400 C 85.671 38.400,85.052 38.850,84.639 39.400 C 84.226 39.950,83.588 40.400,83.222 40.400 C 82.856 40.400,81.946 41.030,81.200 41.800 C 80.454 42.570,79.601 43.200,79.306 43.200 C 79.010 43.200,78.083 43.920,77.246 44.800 C 76.409 45.680,75.468 46.400,75.154 46.400 C 74.841 46.400,72.792 48.200,70.600 50.400 C 68.408 52.600,66.392 54.400,66.120 54.400 C 65.478 54.400,53.200 66.685,53.200 67.327 C 53.200 67.595,51.400 69.608,49.200 71.800 C 47.000 73.992,45.200 76.037,45.200 76.345 C 45.200 76.653,44.570 77.500,43.800 78.226 C 43.030 78.952,42.400 79.792,42.400 80.092 C 42.400 80.392,41.680 81.341,40.800 82.200 C 39.920 83.059,39.200 84.020,39.200 84.334 C 39.200 84.648,38.570 85.500,37.800 86.226 C 37.030 86.952,36.400 87.797,36.400 88.103 C 36.400 88.410,35.950 89.083,35.400 89.600 C 34.850 90.117,34.400 90.843,34.400 91.214 C 34.400 91.585,33.950 92.226,33.400 92.639 C 32.850 93.052,32.400 93.676,32.400 94.025 C 32.400 94.375,31.950 95.083,31.400 95.600 C 30.850 96.117,30.400 96.874,30.400 97.282 C 30.400 97.691,30.130 98.129,29.800 98.255 C 29.470 98.382,29.200 98.795,29.200 99.173 C 29.200 99.551,28.750 100.283,28.200 100.800 C 27.650 101.317,27.200 102.068,27.200 102.470 C 27.200 102.871,27.020 103.200,26.800 103.200 C 26.580 103.200,26.400 103.538,26.400 103.951 C 26.400 104.364,26.130 104.926,25.800 105.200 C 25.470 105.474,25.200 106.036,25.200 106.449 C 25.200 106.862,25.020 107.200,24.800 107.200 C 24.580 107.200,24.400 107.538,24.400 107.951 C 24.400 108.364,24.130 108.926,23.800 109.200 C 23.470 109.474,23.200 110.036,23.200 110.449 C 23.200 110.862,23.020 111.200,22.800 111.200 C 22.580 111.200,22.400 111.538,22.400 111.951 C 22.400 112.364,22.130 112.926,21.800 113.200 C 21.470 113.474,21.200 114.036,21.200 114.449 C 21.200 114.862,21.020 115.200,20.800 115.200 C 20.580 115.200,20.400 115.538,20.400 115.951 C 20.400 116.364,20.130 116.926,19.800 117.200 C 19.470 117.474,19.200 118.036,19.200 118.449 C 19.200 118.862,19.020 119.200,18.800 119.200 C 18.580 119.200,18.400 119.538,18.400 119.951 C 18.400 120.364,18.130 120.926,17.800 121.200 C 17.470 121.474,17.200 122.036,17.200 122.449 C 17.200 122.862,17.020 123.200,16.800 123.200 C 16.580 123.200,16.400 123.836,16.400 124.613 C 16.400 125.499,16.177 126.111,15.800 126.255 C 15.470 126.382,15.200 126.816,15.200 127.219 C 15.200 127.623,15.020 128.064,14.800 128.200 C 14.580 128.336,14.400 128.955,14.400 129.575 C 14.400 130.195,14.130 130.926,13.800 131.200 C 13.470 131.474,13.200 132.205,13.200 132.825 C 13.200 133.445,13.020 134.064,12.800 134.200 C 12.580 134.336,12.400 134.955,12.400 135.575 C 12.400 136.195,12.130 136.926,11.800 137.200 C 11.470 137.474,11.200 138.205,11.200 138.825 C 11.200 139.445,11.020 140.064,10.800 140.200 C 10.580 140.336,10.400 140.955,10.400 141.575 C 10.400 142.195,10.130 142.926,9.800 143.200 C 9.470 143.474,9.200 144.205,9.200 144.825 C 9.200 145.445,9.020 146.064,8.800 146.200 C 8.580 146.336,8.400 147.252,8.400 148.236 C 8.400 149.457,8.210 150.098,7.800 150.255 C 7.394 150.411,7.200 151.047,7.200 152.219 C 7.200 153.173,7.020 154.064,6.800 154.200 C 6.580 154.336,6.400 155.252,6.400 156.236 C 6.400 157.457,6.210 158.098,5.800 158.255 C 5.361 158.424,5.200 159.116,5.200 160.843 C 5.200 162.148,5.021 163.200,4.800 163.200 C 4.572 163.200,4.400 164.384,4.400 165.951 C 4.400 167.908,4.227 168.846,3.800 169.200 C 3.360 169.565,3.200 170.533,3.200 172.825 C 3.200 174.545,3.020 176.064,2.800 176.200 C 2.567 176.344,2.400 178.588,2.400 181.575 C 2.400 185.644,2.276 186.805,1.800 187.200 C 0.899 187.948,0.899 212.599,1.800 212.945 C 2.291 213.133,2.400 214.120,2.400 218.364 C 2.400 221.392,2.567 223.656,2.800 223.800 C 3.020 223.936,3.200 225.547,3.200 227.381 C 3.200 229.975,3.333 230.765,3.800 230.945 C 4.255 231.119,4.400 231.856,4.400 233.987 C 4.400 235.596,4.571 236.800,4.800 236.800 C 5.022 236.800,5.200 237.871,5.200 239.213 C 5.200 240.988,5.358 241.686,5.800 241.855 C 6.206 242.011,6.400 242.647,6.400 243.819 C 6.400 244.773,6.580 245.664,6.800 245.800 C 7.020 245.936,7.200 246.852,7.200 247.836 C 7.200 249.057,7.390 249.698,7.800 249.855 C 8.206 250.011,8.400 250.647,8.400 251.819 C 8.400 252.773,8.580 253.664,8.800 253.800 C 9.020 253.936,9.200 254.647,9.200 255.381 C 9.200 256.197,9.433 256.804,9.800 256.945 C 10.147 257.078,10.400 257.676,10.400 258.364 C 10.400 259.018,10.580 259.664,10.800 259.800 C 11.020 259.936,11.200 260.647,11.200 261.381 C 11.200 262.197,11.433 262.804,11.800 262.945 C 12.147 263.078,12.400 263.676,12.400 264.364 C 12.400 265.018,12.580 265.664,12.800 265.800 C 13.020 265.936,13.200 266.647,13.200 267.381 C 13.200 268.197,13.433 268.804,13.800 268.945 C 14.147 269.078,14.400 269.676,14.400 270.364 C 14.400 271.018,14.580 271.664,14.800 271.800 C 15.020 271.936,15.200 272.402,15.200 272.836 C 15.200 273.270,15.470 273.729,15.800 273.855 C 16.170 273.997,16.400 274.605,16.400 275.443 C 16.400 276.189,16.580 276.800,16.800 276.800 C 17.020 276.800,17.200 277.231,17.200 277.757 C 17.200 278.284,17.470 278.818,17.800 278.945 C 18.130 279.071,18.400 279.541,18.400 279.987 C 18.400 280.434,18.580 280.800,18.800 280.800 C 19.020 280.800,19.200 281.231,19.200 281.757 C 19.200 282.284,19.470 282.818,19.800 282.945 C 20.144 283.077,20.400 283.674,20.400 284.345 C 20.400 285.072,20.776 285.873,21.393 286.458 C 21.939 286.976,22.389 287.715,22.393 288.100 C 22.397 288.485,22.580 288.800,22.800 288.800 C 23.020 288.800,23.200 289.231,23.200 289.757 C 23.200 290.284,23.470 290.818,23.800 290.945 C 24.130 291.071,24.400 291.541,24.400 291.987 C 24.400 292.434,24.580 292.800,24.800 292.800 C 25.020 292.800,25.200 293.231,25.200 293.757 C 25.200 294.284,25.470 294.818,25.800 294.945 C 26.130 295.071,26.400 295.541,26.400 295.987 C 26.400 296.434,26.580 296.800,26.800 296.800 C 27.020 296.800,27.200 297.179,27.200 297.642 C 27.200 298.106,27.650 298.839,28.200 299.271 C 28.750 299.704,29.200 300.411,29.200 300.842 C 29.200 301.273,29.470 301.729,29.800 301.855 C 30.130 301.982,30.400 302.407,30.400 302.801 C 30.400 303.194,30.847 303.940,31.393 304.458 C 31.939 304.976,32.389 305.649,32.393 305.954 C 32.397 306.259,32.850 306.925,33.400 307.435 C 33.950 307.945,34.400 308.622,34.400 308.939 C 34.400 309.256,34.847 309.940,35.393 310.458 C 35.939 310.976,36.389 311.649,36.393 311.953 C 36.397 312.257,37.030 313.100,37.800 313.826 C 38.570 314.552,39.200 315.426,39.200 315.768 C 39.200 316.110,39.920 317.067,40.799 317.895 C 41.679 318.723,42.399 319.649,42.399 319.953 C 42.400 320.257,43.030 321.100,43.800 321.826 C 44.570 322.552,45.200 323.410,45.200 323.733 C 45.200 324.056,46.820 325.927,48.800 327.892 C 50.780 329.857,52.400 331.685,52.400 331.954 C 52.400 332.611,66.614 346.798,67.278 346.806 C 67.565 346.809,69.306 348.339,71.147 350.206 C 72.987 352.073,74.735 353.600,75.031 353.600 C 75.327 353.600,76.282 354.320,77.153 355.200 C 78.024 356.080,78.982 356.800,79.281 356.800 C 79.579 356.800,80.418 357.430,81.144 358.200 C 81.871 358.970,82.713 359.600,83.017 359.600 C 83.321 359.600,84.282 360.320,85.153 361.200 C 86.024 362.080,87.008 362.800,87.340 362.800 C 87.671 362.800,88.296 363.250,88.729 363.800 C 89.161 364.350,89.813 364.800,90.177 364.800 C 90.541 364.800,91.255 365.250,91.765 365.800 C 92.275 366.350,92.868 366.800,93.084 366.800 C 93.783 366.800,96.182 368.120,96.847 368.870 C 97.203 369.272,97.793 369.600,98.159 369.600 C 98.526 369.600,98.929 369.870,99.055 370.200 C 99.182 370.530,99.635 370.800,100.062 370.800 C 100.489 370.800,101.255 371.250,101.765 371.800 C 102.275 372.350,102.836 372.800,103.011 372.800 C 103.648 372.800,106.400 374.162,106.400 374.477 C 106.400 374.655,106.610 374.800,106.866 374.800 C 107.612 374.800,110.400 376.123,110.400 376.477 C 110.400 376.655,110.610 376.800,110.866 376.800 C 111.612 376.800,114.400 378.123,114.400 378.477 C 114.400 378.655,114.610 378.800,114.866 378.800 C 115.612 378.800,118.400 380.123,118.400 380.477 C 118.400 380.655,118.749 380.800,119.176 380.800 C 119.603 380.800,120.064 380.980,120.200 381.200 C 120.336 381.420,120.982 381.600,121.636 381.600 C 122.324 381.600,122.922 381.853,123.055 382.200 C 123.182 382.530,123.716 382.800,124.243 382.800 C 124.769 382.800,125.200 382.980,125.200 383.200 C 125.200 383.420,125.727 383.600,126.371 383.600 C 127.016 383.600,127.813 383.870,128.143 384.200 C 128.473 384.530,129.015 384.800,129.348 384.800 C 129.681 384.800,130.064 384.980,130.200 385.200 C 130.336 385.420,130.982 385.600,131.636 385.600 C 132.324 385.600,132.922 385.853,133.055 386.200 C 133.196 386.567,133.803 386.800,134.619 386.800 C 135.353 386.800,136.064 386.980,136.200 387.200 C 136.336 387.420,136.982 387.600,137.636 387.600 C 138.324 387.600,138.922 387.853,139.055 388.200 C 139.196 388.567,139.803 388.800,140.619 388.800 C 141.353 388.800,142.064 388.980,142.200 389.200 C 142.336 389.420,143.144 389.600,143.995 389.600 C 144.846 389.600,145.813 389.870,146.143 390.200 C 146.473 390.530,147.296 390.800,147.971 390.800 C 148.647 390.800,149.200 390.980,149.200 391.200 C 149.200 391.420,150.016 391.600,151.013 391.600 C 152.255 391.600,152.898 391.789,153.055 392.200 C 153.224 392.638,153.914 392.800,155.619 392.800 C 156.903 392.800,158.064 392.980,158.200 393.200 C 158.336 393.420,159.432 393.600,160.636 393.600 C 162.213 393.600,162.890 393.768,163.055 394.200 C 163.224 394.638,163.914 394.800,165.619 394.800 C 166.903 394.800,168.064 394.980,168.200 395.200 C 168.336 395.420,170.044 395.600,171.995 395.600 C 174.615 395.600,175.700 395.757,176.143 396.200 C 176.607 396.664,177.788 396.800,181.348 396.800 C 183.986 396.800,186.058 396.971,186.200 397.200 C 186.538 397.746,213.462 397.746,213.800 397.200 C 213.942 396.970,216.054 396.800,218.775 396.800 C 222.489 396.800,223.609 396.671,224.000 396.200 C 224.374 395.750,225.378 395.600,228.025 395.600 C 229.965 395.600,231.664 395.420,231.800 395.200 C 231.936 394.980,233.097 394.800,234.381 394.800 C 236.086 394.800,236.776 394.638,236.945 394.200 C 237.110 393.768,237.787 393.600,239.364 393.600 C 240.568 393.600,241.664 393.420,241.800 393.200 C 241.936 392.980,243.097 392.800,244.381 392.800 C 246.086 392.800,246.776 392.638,246.945 392.200 C 247.102 391.789,247.745 391.600,248.987 391.600 C 249.984 391.600,250.800 391.420,250.800 391.200 C 250.800 390.980,251.408 390.800,252.151 390.800 C 252.894 390.800,253.726 390.530,254.000 390.200 C 254.284 389.858,255.156 389.600,256.025 389.600 C 256.865 389.600,257.664 389.420,257.800 389.200 C 257.936 388.980,258.647 388.800,259.381 388.800 C 260.197 388.800,260.804 388.567,260.945 388.200 C 261.078 387.853,261.676 387.600,262.364 387.600 C 263.018 387.600,263.664 387.420,263.800 387.200 C 263.936 386.980,264.647 386.800,265.381 386.800 C 266.197 386.800,266.804 386.567,266.945 386.200 C 267.078 385.853,267.676 385.600,268.364 385.600 C 269.018 385.600,269.664 385.420,269.800 385.200 C 269.936 384.980,270.375 384.800,270.775 384.800 C 271.175 384.800,271.726 384.530,272.000 384.200 C 272.274 383.870,273.016 383.600,273.649 383.600 C 274.282 383.600,274.800 383.420,274.800 383.200 C 274.800 382.980,275.231 382.800,275.757 382.800 C 276.284 382.800,276.818 382.530,276.945 382.200 C 277.071 381.870,277.633 381.600,278.193 381.600 C 279.112 381.600,279.697 381.385,281.600 380.349 C 281.930 380.169,282.830 379.732,283.600 379.378 C 284.370 379.023,285.270 378.573,285.600 378.378 C 285.930 378.182,286.830 377.732,287.600 377.378 C 288.370 377.023,289.270 376.573,289.600 376.378 C 290.241 375.998,292.212 375.046,293.200 374.638 C 293.530 374.502,294.340 374.046,295.000 373.625 C 295.660 373.203,296.502 372.845,296.871 372.829 C 297.240 372.813,297.896 372.350,298.329 371.800 C 298.761 371.250,299.475 370.800,299.915 370.800 C 300.355 370.800,300.818 370.530,300.945 370.200 C 301.071 369.870,301.541 369.600,301.987 369.600 C 302.434 369.600,302.800 369.420,302.800 369.200 C 302.800 368.980,303.179 368.800,303.642 368.800 C 304.106 368.800,304.839 368.350,305.271 367.800 C 305.704 367.250,306.392 366.800,306.800 366.800 C 307.208 366.800,307.896 366.350,308.329 365.800 C 308.761 365.250,309.423 364.800,309.800 364.800 C 310.177 364.800,310.839 364.350,311.271 363.800 C 311.704 363.250,312.360 362.800,312.729 362.800 C 313.098 362.799,314.098 362.079,314.952 361.200 C 315.805 360.320,316.736 359.600,317.019 359.600 C 317.303 359.600,318.129 358.970,318.856 358.200 C 319.582 357.430,320.451 356.800,320.788 356.800 C 321.125 356.799,322.098 356.079,322.952 355.200 C 323.805 354.320,324.729 353.600,325.005 353.600 C 325.281 353.600,327.013 352.073,328.853 350.206 C 330.694 348.339,332.456 346.809,332.770 346.806 C 333.484 346.799,347.600 332.690,347.600 331.983 C 347.600 331.698,349.220 329.857,351.200 327.892 C 353.180 325.927,354.800 324.076,354.800 323.779 C 354.800 323.482,355.430 322.627,356.200 321.879 C 356.970 321.131,357.600 320.267,357.601 319.960 C 357.601 319.652,358.321 318.723,359.201 317.895 C 360.080 317.067,360.800 316.131,360.800 315.814 C 360.800 315.498,361.430 314.627,362.200 313.879 C 362.970 313.131,363.603 312.267,363.607 311.960 C 363.611 311.652,364.061 310.976,364.607 310.458 C 365.153 309.940,365.600 309.308,365.600 309.054 C 365.600 308.800,366.050 308.107,366.600 307.513 C 367.150 306.920,367.603 306.202,367.607 305.917 C 367.611 305.633,368.061 304.976,368.607 304.458 C 369.153 303.940,369.600 303.308,369.600 303.054 C 369.600 302.800,370.050 302.107,370.600 301.513 C 371.150 300.920,371.600 300.151,371.600 299.805 C 371.600 299.458,371.870 299.071,372.200 298.945 C 372.530 298.818,372.800 298.284,372.800 297.757 C 372.800 297.231,372.980 296.800,373.200 296.800 C 373.420 296.800,373.600 296.434,373.600 295.987 C 373.600 295.541,373.856 295.077,374.169 294.957 C 374.482 294.836,375.027 294.167,375.380 293.469 C 375.733 292.771,376.182 291.930,376.378 291.600 C 376.573 291.270,377.023 290.370,377.378 289.600 C 377.732 288.830,378.169 287.930,378.349 287.600 C 379.385 285.697,379.600 285.112,379.600 284.193 C 379.600 283.633,379.870 283.071,380.200 282.945 C 380.530 282.818,380.800 282.284,380.800 281.757 C 380.800 281.231,380.980 280.800,381.200 280.800 C 381.420 280.800,381.600 280.434,381.600 279.987 C 381.600 279.541,381.870 279.071,382.200 278.945 C 382.530 278.818,382.800 278.284,382.800 277.757 C 382.800 277.231,382.980 276.800,383.200 276.800 C 383.420 276.800,383.600 276.282,383.600 275.649 C 383.600 275.016,383.870 274.274,384.200 274.000 C 384.530 273.726,384.800 273.175,384.800 272.775 C 384.800 272.375,384.980 271.936,385.200 271.800 C 385.420 271.664,385.600 271.018,385.600 270.364 C 385.600 269.676,385.853 269.078,386.200 268.945 C 386.531 268.818,386.800 268.224,386.800 267.619 C 386.800 266.481,387.772 264.188,388.425 263.784 C 388.631 263.657,388.800 262.933,388.800 262.176 C 388.800 261.419,388.980 260.800,389.200 260.800 C 389.420 260.800,389.600 259.984,389.600 258.987 C 389.600 257.745,389.789 257.102,390.200 256.945 C 390.567 256.804,390.800 256.197,390.800 255.381 C 390.800 254.647,390.980 253.936,391.200 253.800 C 391.420 253.664,391.600 252.865,391.600 252.025 C 391.600 251.156,391.858 250.284,392.200 250.000 C 392.564 249.698,392.800 248.822,392.800 247.775 C 392.800 246.825,392.980 245.936,393.200 245.800 C 393.420 245.664,393.600 244.865,393.600 244.025 C 393.600 243.156,393.858 242.284,394.200 242.000 C 394.609 241.661,394.800 240.753,394.800 239.151 C 394.800 237.850,394.979 236.800,395.200 236.800 C 395.420 236.800,395.600 235.832,395.600 234.649 C 395.600 233.225,395.803 232.330,396.200 232.000 C 396.655 231.623,396.800 230.600,396.800 227.775 C 396.800 225.721,396.980 223.936,397.200 223.800 C 397.433 223.656,397.600 221.392,397.600 218.364 C 397.600 214.120,397.709 213.133,398.200 212.945 C 398.716 212.747,398.800 210.933,398.800 200.000 C 398.800 189.067,398.716 187.253,398.200 187.055 C 397.709 186.867,397.600 185.880,397.600 181.636 C 397.600 178.608,397.433 176.344,397.200 176.200 C 396.980 176.064,396.800 174.331,396.800 172.348 C 396.800 169.677,396.645 168.587,396.200 168.143 C 395.814 167.757,395.600 166.768,395.600 165.371 C 395.600 164.177,395.420 163.200,395.200 163.200 C 394.980 163.200,394.800 162.197,394.800 160.971 C 394.800 159.524,394.590 158.533,394.200 158.143 C 393.870 157.813,393.600 156.846,393.600 155.995 C 393.600 155.144,393.420 154.336,393.200 154.200 C 392.980 154.064,392.800 153.231,392.800 152.348 C 392.800 151.455,392.534 150.477,392.200 150.143 C 391.870 149.813,391.600 148.846,391.600 147.995 C 391.600 147.144,391.420 146.336,391.200 146.200 C 390.980 146.064,390.800 145.353,390.800 144.619 C 390.800 143.803,390.567 143.196,390.200 143.055 C 389.789 142.898,389.600 142.255,389.600 141.013 C 389.600 140.016,389.420 139.200,389.200 139.200 C 388.980 139.200,388.800 138.769,388.800 138.243 C 388.800 137.716,388.530 137.182,388.200 137.055 C 387.853 136.922,387.600 136.324,387.600 135.636 C 387.600 134.982,387.420 134.336,387.200 134.200 C 386.980 134.064,386.800 133.353,386.800 132.619 C 386.800 131.803,386.567 131.196,386.200 131.055 C 385.853 130.922,385.600 130.324,385.600 129.636 C 385.600 128.982,385.420 128.336,385.200 128.200 C 384.980 128.064,384.800 127.681,384.800 127.348 C 384.800 127.015,384.530 126.473,384.200 126.143 C 383.870 125.813,383.600 125.016,383.600 124.371 C 383.600 123.727,383.420 123.200,383.200 123.200 C 382.980 123.200,382.800 122.769,382.800 122.243 C 382.800 121.716,382.530 121.182,382.200 121.055 C 381.870 120.929,381.600 120.459,381.600 120.013 C 381.600 119.566,381.420 119.200,381.200 119.200 C 380.980 119.200,380.800 118.769,380.800 118.243 C 380.800 117.716,380.530 117.182,380.200 117.055 C 379.853 116.922,379.600 116.324,379.600 115.636 C 379.600 114.982,379.420 114.336,379.200 114.200 C 378.980 114.064,378.800 113.603,378.800 113.176 C 378.800 112.749,378.655 112.400,378.477 112.400 C 378.162 112.400,376.800 109.648,376.800 109.011 C 376.800 108.836,376.350 108.275,375.800 107.765 C 375.250 107.255,374.800 106.489,374.800 106.062 C 374.800 105.635,374.530 105.182,374.200 105.055 C 373.870 104.929,373.600 104.459,373.600 104.013 C 373.600 103.566,373.420 103.200,373.200 103.200 C 372.980 103.200,372.800 102.821,372.800 102.358 C 372.800 101.894,372.350 101.161,371.800 100.729 C 371.250 100.296,370.800 99.595,370.800 99.171 C 370.800 98.747,370.638 98.400,370.439 98.400 C 370.241 98.400,369.893 97.869,369.667 97.220 C 369.441 96.571,368.883 95.721,368.428 95.331 C 367.972 94.941,367.600 94.384,367.600 94.093 C 367.600 93.802,367.150 93.114,366.600 92.564 C 366.050 92.014,365.600 91.321,365.600 91.024 C 365.600 90.727,365.153 90.060,364.607 89.542 C 364.061 89.024,363.611 88.360,363.607 88.067 C 363.603 87.773,362.970 86.921,362.200 86.174 C 361.430 85.426,360.800 84.543,360.800 84.212 C 360.800 83.881,360.080 82.933,359.201 82.105 C 358.321 81.277,357.601 80.360,357.601 80.067 C 357.600 79.773,356.970 78.921,356.200 78.174 C 355.430 77.426,354.800 76.559,354.800 76.247 C 354.800 75.935,353.180 74.073,351.200 72.108 C 349.220 70.143,347.600 68.318,347.600 68.052 C 347.600 67.395,333.392 53.201,332.728 53.194 C 332.438 53.191,330.694 51.661,328.853 49.794 C 327.013 47.927,325.250 46.400,324.937 46.400 C 324.624 46.400,323.683 45.680,322.846 44.800 C 322.009 43.920,321.066 43.200,320.750 43.200 C 320.434 43.200,319.582 42.570,318.856 41.800 C 318.129 41.030,317.272 40.400,316.951 40.400 C 316.631 40.400,315.683 39.680,314.846 38.800 C 314.009 37.920,313.039 37.200,312.691 37.200 C 312.343 37.200,311.704 36.750,311.271 36.200 C 310.839 35.650,310.148 35.200,309.737 35.200 C 309.326 35.200,308.652 34.750,308.239 34.200 C 307.826 33.650,307.164 33.200,306.768 33.200 C 306.371 33.200,305.936 33.020,305.800 32.800 C 305.664 32.580,305.285 32.400,304.957 32.400 C 304.630 32.400,303.945 31.950,303.435 31.400 C 302.925 30.850,302.208 30.400,301.842 30.400 C 301.475 30.400,301.071 30.130,300.945 29.800 C 300.818 29.470,300.326 29.200,299.852 29.200 C 299.378 29.200,298.652 28.750,298.239 28.200 C 297.826 27.650,297.164 27.200,296.768 27.200 C 296.371 27.200,295.936 27.020,295.800 26.800 C 295.664 26.580,295.223 26.400,294.819 26.400 C 294.416 26.400,293.982 26.130,293.855 25.800 C 293.729 25.470,293.270 25.200,292.836 25.200 C 292.402 25.200,291.936 25.020,291.800 24.800 C 291.664 24.580,291.223 24.400,290.819 24.400 C 290.416 24.400,289.982 24.130,289.855 23.800 C 289.729 23.470,289.270 23.200,288.836 23.200 C 288.402 23.200,287.936 23.020,287.800 22.800 C 287.664 22.580,287.223 22.400,286.819 22.400 C 286.416 22.400,285.982 22.130,285.855 21.800 C 285.729 21.470,285.270 21.200,284.836 21.200 C 284.402 21.200,283.936 21.020,283.800 20.800 C 283.664 20.580,283.223 20.400,282.819 20.400 C 282.416 20.400,281.982 20.130,281.855 19.800 C 281.729 19.470,281.270 19.200,280.836 19.200 C 280.402 19.200,279.936 19.020,279.800 18.800 C 279.664 18.580,279.018 18.400,278.364 18.400 C 277.676 18.400,277.078 18.147,276.945 17.800 C 276.818 17.470,276.284 17.200,275.757 17.200 C 275.231 17.200,274.800 17.020,274.800 16.800 C 274.800 16.580,274.189 16.400,273.443 16.400 C 272.605 16.400,271.997 16.170,271.855 15.800 C 271.729 15.470,271.270 15.200,270.836 15.200 C 270.402 15.200,269.936 15.020,269.800 14.800 C 269.664 14.580,269.018 14.400,268.364 14.400 C 267.676 14.400,267.078 14.147,266.945 13.800 C 266.804 13.433,266.197 13.200,265.381 13.200 C 264.647 13.200,263.936 13.020,263.800 12.800 C 263.664 12.580,263.018 12.400,262.364 12.400 C 261.676 12.400,261.078 12.147,260.945 11.800 C 260.804 11.433,260.197 11.200,259.381 11.200 C 258.647 11.200,257.936 11.020,257.800 10.800 C 257.664 10.580,256.773 10.400,255.819 10.400 C 254.647 10.400,254.011 10.206,253.855 9.800 C 253.711 9.423,253.099 9.200,252.213 9.200 C 251.436 9.200,250.800 9.020,250.800 8.800 C 250.800 8.579,249.748 8.400,248.443 8.400 C 246.716 8.400,246.024 8.239,245.855 7.800 C 245.698 7.390,245.057 7.200,243.836 7.200 C 242.852 7.200,241.936 7.020,241.800 6.800 C 241.664 6.580,240.568 6.400,239.364 6.400 C 237.787 6.400,237.110 6.232,236.945 5.800 C 236.769 5.342,236.017 5.200,233.757 5.200 C 232.052 5.200,230.800 5.031,230.800 4.800 C 230.800 4.565,229.414 4.400,227.443 4.400 C 224.828 4.400,224.035 4.267,223.855 3.800 C 223.666 3.308,222.655 3.200,218.213 3.200 C 214.871 3.200,212.800 3.047,212.800 2.800 C 212.800 2.542,208.267 2.400,200.000 2.400 C 191.733 2.400,187.200 2.542,187.200 2.800 M105.859 98.938 C 121.996 115.074,135.200 128.494,135.200 128.760 C 135.200 129.026,150.122 144.165,168.361 162.402 L 201.522 195.560 212.561 184.520 C 218.632 178.449,223.600 173.265,223.600 173.000 C 223.600 172.736,237.820 158.300,255.200 140.921 C 272.580 123.542,286.800 109.087,286.800 108.800 C 286.800 108.512,294.782 100.295,304.539 90.539 L 322.277 72.800 324.539 72.800 C 326.863 72.800,328.400 73.659,328.400 74.958 C 328.400 75.265,328.847 75.940,329.393 76.458 C 329.975 77.010,330.389 77.855,330.393 78.500 C 330.399 79.508,330.528 79.600,331.939 79.600 C 334.353 79.600,335.200 80.601,335.200 83.453 L 335.200 85.812 330.200 90.800 C 327.450 93.543,325.200 96.026,325.200 96.317 C 325.200 96.608,318.000 104.043,309.200 112.840 C 300.400 121.637,293.200 129.052,293.200 129.319 C 293.200 129.586,286.270 136.732,277.800 145.200 C 269.330 153.668,262.400 160.833,262.400 161.123 C 262.400 161.413,255.380 168.666,246.800 177.241 C 238.220 185.816,231.200 193.048,231.200 193.312 C 231.200 193.576,227.660 197.336,223.334 201.666 L 215.468 209.539 216.934 210.962 C 217.740 211.745,218.400 212.632,218.400 212.934 C 218.400 213.235,237.030 232.111,259.800 254.880 C 282.570 277.648,301.200 296.496,301.200 296.764 C 301.200 297.032,307.320 303.367,314.800 310.841 C 322.280 318.315,328.400 324.606,328.400 324.821 C 328.400 325.035,328.625 325.592,328.900 326.058 C 329.300 326.735,329.300 326.941,328.900 327.086 C 328.625 327.185,328.400 327.555,328.400 327.908 C 328.400 328.714,326.846 330.400,326.102 330.400 C 325.406 330.400,324.400 331.373,324.400 332.046 C 324.400 332.823,322.746 334.400,321.930 334.400 C 321.474 334.400,321.200 334.691,321.200 335.176 C 321.200 335.603,321.020 336.064,320.800 336.200 C 320.580 336.336,320.400 336.757,320.400 337.135 C 320.400 337.881,319.076 339.200,318.327 339.200 C 318.072 339.200,317.519 339.511,317.099 339.892 C 316.374 340.547,316.314 340.547,315.947 339.892 C 315.734 339.511,315.272 339.200,314.919 339.200 C 314.183 339.200,274.800 299.973,274.800 299.240 C 274.800 298.975,260.580 284.539,243.200 267.160 C 225.820 249.780,211.600 235.326,211.600 235.039 C 211.600 234.346,201.636 224.400,200.941 224.400 C 200.644 224.400,200.400 224.682,200.400 225.026 C 200.400 225.370,193.200 232.846,184.400 241.640 C 175.600 250.433,168.400 257.848,168.400 258.116 C 168.400 258.384,161.380 265.622,152.800 274.200 C 144.220 282.778,137.200 290.033,137.200 290.322 C 137.200 290.611,130.270 297.774,121.800 306.239 C 113.330 314.704,106.400 321.847,106.400 322.112 C 106.400 322.378,101.316 327.681,95.103 333.897 L 83.805 345.200 81.450 345.200 C 78.601 345.200,77.600 344.352,77.600 341.939 C 77.600 340.547,77.500 340.400,76.556 340.400 C 74.741 340.400,73.615 338.911,73.607 336.500 C 73.602 334.903,73.456 334.400,73.000 334.400 C 71.660 334.400,70.800 332.889,70.800 330.534 L 70.800 328.267 84.800 314.281 C 92.500 306.588,98.800 300.074,98.800 299.805 C 98.800 299.537,112.930 285.187,130.200 267.918 C 147.470 250.649,161.600 236.285,161.600 235.998 C 161.600 235.711,167.270 229.809,174.200 222.884 C 181.130 215.958,186.800 210.161,186.800 210.002 C 186.800 209.843,178.430 201.345,168.200 191.118 C 157.970 180.890,149.600 172.306,149.600 172.041 C 149.600 171.776,135.470 157.430,118.200 140.161 C 100.930 122.891,86.800 108.524,86.800 108.233 C 86.800 107.942,81.400 102.310,74.800 95.719 C 68.200 89.128,62.800 83.511,62.800 83.239 C 62.800 82.966,62.510 82.453,62.156 82.098 C 61.563 81.506,61.563 81.416,62.156 80.983 C 62.510 80.724,62.800 80.201,62.800 79.820 C 62.800 78.844,64.396 77.629,65.700 77.613 C 66.942 77.598,67.107 77.050,66.156 76.098 C 65.563 75.506,65.563 75.416,66.156 74.983 C 66.510 74.724,66.800 74.201,66.800 73.820 C 66.800 72.903,68.368 71.630,69.517 71.613 C 70.022 71.606,70.920 71.150,71.513 70.600 C 72.359 69.816,73.015 69.600,74.555 69.600 L 76.517 69.600 105.859 98.938 " stroke="none" fill="#fcfcfc" fill-rule="evenodd"></path><path id="path1" d="M71.600 71.000 C 71.053 71.583,70.215 72.000,69.592 72.000 C 68.455 72.000,67.200 73.077,67.200 74.051 C 67.200 74.375,66.992 74.848,66.737 75.103 C 66.386 75.454,66.397 75.715,66.782 76.178 C 67.541 77.093,66.990 78.000,65.675 78.000 C 64.467 78.000,63.200 79.051,63.200 80.051 C 63.200 80.375,62.984 80.856,62.720 81.120 C 62.347 81.493,62.347 81.707,62.720 82.080 C 62.984 82.344,63.200 82.789,63.200 83.068 C 63.200 83.347,68.600 88.969,75.200 95.560 C 81.800 102.152,87.200 107.783,87.200 108.073 C 87.200 108.364,101.330 122.731,118.600 140.000 C 135.870 157.269,150.000 171.616,150.000 171.883 C 150.000 172.149,158.370 180.734,168.600 190.959 C 178.830 201.185,187.200 209.789,187.200 210.078 C 187.200 210.368,181.530 216.273,174.600 223.200 C 167.670 230.127,162.000 235.977,162.000 236.199 C 162.000 236.420,147.870 250.731,130.600 268.000 C 113.330 285.269,99.200 299.669,99.200 300.001 C 99.200 300.333,92.900 306.902,85.200 314.600 L 71.200 328.596 71.200 330.636 C 71.200 332.778,71.974 334.000,73.331 334.000 C 73.875 334.000,74.000 334.411,74.000 336.200 C 74.000 338.785,74.895 340.000,76.800 340.000 C 77.949 340.000,78.000 340.074,78.000 341.738 C 78.000 344.065,78.844 344.800,81.516 344.800 L 83.569 344.800 94.784 333.580 C 100.953 327.409,106.000 322.144,106.000 321.878 C 106.000 321.613,112.930 314.468,121.400 306.000 C 129.870 297.532,136.800 290.367,136.800 290.077 C 136.800 289.787,143.820 282.534,152.400 273.959 C 160.980 265.384,168.000 258.150,168.000 257.882 C 168.000 257.615,175.200 250.198,184.000 241.400 C 192.910 232.492,200.000 225.093,200.000 224.702 C 200.000 222.970,201.789 224.144,206.823 229.177 C 209.670 232.025,212.000 234.590,212.000 234.878 C 212.000 235.166,226.220 249.621,243.600 267.000 C 260.980 284.379,275.200 298.815,275.200 299.081 C 275.200 299.744,314.305 338.800,314.969 338.800 C 315.262 338.800,315.736 339.081,316.021 339.425 C 316.492 339.992,316.573 339.992,316.890 339.425 C 317.082 339.081,317.563 338.800,317.958 338.800 C 318.833 338.800,320.000 337.582,320.000 336.669 C 320.000 336.301,320.167 336.000,320.372 336.000 C 320.577 336.000,320.802 335.597,320.872 335.104 C 320.942 334.611,321.331 334.145,321.736 334.068 C 322.654 333.893,324.000 332.581,324.000 331.862 C 324.000 331.222,325.267 330.000,325.931 330.000 C 326.563 330.000,328.000 328.528,328.000 327.880 C 328.000 327.594,328.225 327.122,328.500 326.830 C 328.900 326.406,328.900 326.263,328.500 326.117 C 328.225 326.016,328.000 325.632,328.000 325.264 C 328.000 324.897,321.880 318.478,314.400 311.000 C 306.920 303.522,300.800 297.187,300.800 296.920 C 300.800 296.654,282.170 277.808,259.400 255.040 C 236.630 232.271,218.000 213.400,218.000 213.103 C 218.000 212.805,217.291 211.870,216.425 211.025 L 214.851 209.487 222.825 201.535 C 227.211 197.162,230.800 193.361,230.800 193.090 C 230.800 192.818,237.820 185.578,246.400 177.000 C 254.980 168.422,262.000 161.186,262.000 160.920 C 262.000 160.653,268.930 153.507,277.400 145.039 C 285.870 136.570,292.800 129.407,292.800 129.119 C 292.800 128.832,300.000 121.398,308.800 112.600 C 317.600 103.802,324.800 96.361,324.800 96.064 C 324.800 95.768,327.050 93.291,329.800 90.561 L 334.800 85.597 334.800 83.461 C 334.800 80.823,334.055 80.000,331.669 80.000 C 330.075 80.000,330.000 79.945,330.000 78.781 C 330.000 77.994,329.645 77.233,329.000 76.635 C 328.450 76.125,328.000 75.442,328.000 75.116 C 328.000 73.976,326.609 73.200,324.567 73.200 L 322.597 73.200 304.898 90.902 C 295.164 100.638,287.200 108.807,287.200 109.055 C 287.200 109.304,272.980 123.698,255.600 141.043 C 238.220 158.388,224.000 172.855,224.000 173.192 C 224.000 173.529,218.960 178.843,212.799 185.001 L 201.598 196.196 168.199 162.799 C 149.830 144.431,134.800 129.185,134.800 128.919 C 134.800 128.654,121.651 115.288,105.580 99.218 L 76.360 70.000 74.450 70.000 C 72.929 70.000,72.348 70.204,71.600 71.000 " stroke="none" fill="#a44ca4" fill-rule="evenodd"></path><path id="path2" d="" stroke="none" fill="#c4d0100" fill-rule="evenodd"></path><path id="path3" d="" stroke="none" fill="#c4d0100" fill-rule="evenodd"></path></g></svg>