<svg id="svg" version="1.1" xmlns="http://www.w3.org/2000/svg" xmlns:xlink="http://www.w3.org/1999/xlink" width="400" height="400" viewBox="0, 0, 400,400"><g id="svgg"><path id="path0" d="M164.072 5.713 C 163.838 5.995,163.459 6.719,163.230 7.320 C 162.617 8.932,161.391 9.200,154.623 9.200 C 148.113 9.200,147.936 9.250,147.465 11.231 C 147.097 12.776,145.658 13.200,140.778 13.200 L 136.394 13.200 135.775 14.746 C 134.938 16.839,133.915 17.200,128.825 17.200 L 124.487 17.200 123.867 18.748 C 123.117 20.623,122.594 20.883,119.000 21.174 C 116.398 21.384,116.190 21.470,116.060 22.391 C 115.803 24.215,114.243 25.200,111.612 25.200 C 108.651 25.200,108.000 25.455,108.000 26.614 C 108.000 28.287,107.016 28.800,103.802 28.800 L 100.862 28.800 100.416 30.152 C 99.918 31.660,98.981 32.646,97.843 32.859 C 97.426 32.936,96.886 33.359,96.643 33.798 C 95.032 36.703,94.946 36.758,91.887 36.883 L 89.003 37.000 88.301 38.495 C 87.828 39.502,87.137 40.183,86.185 40.581 C 85.217 40.985,84.585 41.616,84.182 42.582 C 83.779 43.547,83.147 44.179,82.182 44.582 C 81.225 44.982,80.585 45.617,80.192 46.558 C 79.427 48.389,79.086 48.565,75.841 48.800 C 73.742 48.952,73.001 49.167,72.741 49.700 C 72.554 50.085,72.249 50.715,72.065 51.100 C 71.881 51.485,71.035 52.167,70.186 52.616 C 69.105 53.187,68.546 53.803,68.321 54.672 C 68.080 55.601,67.621 56.065,66.495 56.515 C 65.375 56.963,64.859 57.481,64.476 58.540 C 64.093 59.601,63.601 60.093,62.540 60.476 C 61.484 60.858,60.963 61.376,60.520 62.483 C 60.079 63.585,59.555 64.109,58.520 64.483 C 57.482 64.859,56.961 65.382,56.515 66.495 C 56.065 67.621,55.601 68.080,54.672 68.321 C 53.803 68.546,53.187 69.105,52.616 70.186 C 52.167 71.035,51.485 71.881,51.100 72.065 C 50.715 72.249,50.085 72.554,49.700 72.741 C 49.167 73.001,48.952 73.742,48.800 75.841 C 48.565 79.086,48.389 79.427,46.558 80.192 C 45.617 80.585,44.982 81.225,44.582 82.182 C 44.179 83.147,43.547 83.779,42.582 84.182 C 41.616 84.585,40.985 85.217,40.581 86.185 C 40.183 87.137,39.502 87.828,38.495 88.301 L 37.000 89.003 36.883 91.887 C 36.758 94.946,36.703 95.032,33.798 96.643 C 33.359 96.886,32.936 97.426,32.859 97.843 C 32.646 98.981,31.660 99.918,30.152 100.416 L 28.800 100.862 28.800 103.802 C 28.800 107.016,28.287 108.000,26.614 108.000 C 25.455 108.000,25.200 108.651,25.200 111.612 C 25.200 114.243,24.215 115.803,22.391 116.060 C 21.470 116.190,21.384 116.398,21.174 119.000 C 20.883 122.594,20.623 123.117,18.748 123.867 L 17.200 124.487 17.200 128.825 C 17.200 133.915,16.839 134.938,14.746 135.775 L 13.200 136.394 13.200 140.778 C 13.200 145.658,12.776 147.097,11.231 147.465 C 9.251 147.936,9.202 148.112,9.172 154.749 C 9.139 161.971,9.052 162.312,6.962 163.396 L 5.400 164.207 5.298 199.960 C 5.190 237.736,5.130 236.526,7.133 236.927 C 8.887 237.277,9.199 238.541,9.206 245.319 C 9.213 251.958,9.247 252.100,11.000 252.672 C 12.804 253.260,13.187 254.444,13.194 259.451 L 13.200 263.903 14.500 264.415 C 16.880 265.353,17.181 266.097,17.191 271.051 C 17.201 275.769,17.316 276.079,19.231 276.535 C 20.592 276.859,21.200 278.306,21.200 281.222 L 21.200 283.606 22.746 284.225 C 24.646 284.985,25.200 286.114,25.200 289.222 L 25.200 291.606 26.804 292.248 C 28.579 292.958,28.739 293.323,28.897 296.996 C 28.993 299.227,29.083 299.432,30.200 299.950 C 32.514 301.023,32.800 301.510,32.800 304.382 C 32.800 307.087,33.206 308.000,34.410 308.000 C 35.207 308.000,36.670 309.526,36.860 310.557 C 36.937 310.974,37.315 311.469,37.700 311.657 C 38.085 311.846,38.715 312.151,39.100 312.335 C 39.485 312.519,40.167 313.365,40.616 314.214 C 41.180 315.282,41.805 315.854,42.644 316.072 C 43.547 316.305,44.054 316.817,44.628 318.074 C 45.210 319.346,45.704 319.840,46.633 320.076 C 48.166 320.464,48.798 321.757,48.806 324.519 C 48.813 326.962,48.943 327.189,50.831 328.061 C 51.859 328.535,52.369 329.095,52.642 330.049 C 52.938 331.078,53.327 331.464,54.374 331.764 C 55.396 332.057,55.879 332.520,56.362 333.668 C 56.822 334.762,57.404 335.348,58.447 335.768 C 59.509 336.196,60.056 336.758,60.505 337.880 C 60.961 339.019,61.476 339.539,62.520 339.917 C 63.555 340.291,64.079 340.815,64.520 341.917 C 64.965 343.030,65.483 343.542,66.557 343.930 C 67.584 344.301,68.071 344.760,68.254 345.525 C 68.602 346.983,69.146 347.600,70.085 347.600 C 70.927 347.600,72.365 349.055,72.387 349.929 C 72.416 351.095,73.540 351.600,76.109 351.600 C 78.874 351.600,79.376 351.898,80.447 354.177 C 80.804 354.938,81.434 355.466,82.228 355.670 C 83.150 355.907,83.650 356.408,84.228 357.674 C 84.815 358.957,85.302 359.440,86.257 359.682 C 87.206 359.922,87.661 360.368,88.115 361.505 C 88.561 362.618,89.082 363.141,90.120 363.517 C 91.179 363.899,91.678 364.413,92.158 365.612 L 92.794 367.200 95.178 367.200 C 98.286 367.200,99.415 367.754,100.175 369.654 L 100.794 371.200 103.178 371.200 C 106.094 371.200,107.541 371.808,107.865 373.169 C 108.284 374.929,108.754 375.200,111.395 375.200 C 114.088 375.200,116.000 376.175,116.000 377.549 C 116.000 378.734,116.880 379.199,119.180 379.228 C 122.152 379.266,122.841 379.596,123.795 381.438 L 124.604 383.000 129.525 383.200 C 134.726 383.411,135.963 383.958,135.991 386.057 C 136.003 386.946,136.823 387.200,139.686 387.200 C 142.321 387.200,143.277 387.830,144.086 390.100 L 144.478 391.200 151.139 391.213 C 158.274 391.228,159.600 391.584,159.600 393.484 C 159.600 395.241,158.636 395.200,200.249 395.200 L 239.938 395.200 240.371 393.887 C 241.198 391.381,241.668 391.231,249.088 391.110 L 255.790 391.000 256.348 389.800 C 257.523 387.273,257.705 387.200,262.782 387.200 C 267.565 387.200,268.400 386.955,268.400 385.549 C 268.400 384.175,270.312 383.200,273.005 383.200 C 275.646 383.200,276.116 382.929,276.535 381.169 C 276.859 379.808,278.306 379.200,281.222 379.200 L 283.606 379.200 284.259 377.569 C 285.016 375.678,285.949 375.203,288.926 375.194 C 291.380 375.187,291.754 374.986,292.272 373.400 C 292.792 371.807,294.086 371.213,297.057 371.206 L 299.513 371.200 300.121 369.680 C 300.874 367.800,302.104 367.200,305.211 367.200 C 307.468 367.200,307.598 367.146,307.856 366.100 C 308.173 364.818,309.344 363.668,310.900 363.114 C 311.574 362.874,312.000 362.429,312.000 361.965 C 312.000 360.946,313.205 359.600,314.117 359.600 C 315.089 359.600,316.000 358.660,316.000 357.657 C 316.000 356.116,317.052 355.600,320.198 355.600 L 323.138 355.600 323.571 354.287 C 324.040 352.867,325.111 351.754,326.219 351.537 C 326.601 351.462,327.114 351.041,327.357 350.602 C 328.548 348.456,329.274 347.685,330.300 347.480 C 331.139 347.312,331.517 346.924,331.809 345.928 C 332.094 344.960,332.614 344.406,333.727 343.884 C 334.754 343.403,335.443 342.716,335.831 341.788 C 336.221 340.854,336.864 340.217,337.818 339.818 C 338.783 339.415,339.415 338.783,339.818 337.818 C 340.217 336.864,340.854 336.221,341.788 335.831 C 342.716 335.443,343.403 334.754,343.884 333.727 C 344.406 332.614,344.960 332.094,345.928 331.809 C 346.924 331.517,347.312 331.139,347.480 330.300 C 347.685 329.274,348.456 328.548,350.602 327.357 C 351.041 327.114,351.464 326.574,351.541 326.157 C 351.754 325.019,352.740 324.082,354.248 323.584 L 355.600 323.138 355.600 320.198 C 355.600 317.052,356.116 316.000,357.657 316.000 C 358.660 316.000,359.600 315.089,359.600 314.117 C 359.600 313.205,360.946 312.000,361.965 312.000 C 362.429 312.000,362.874 311.574,363.114 310.900 C 363.668 309.344,364.818 308.173,366.100 307.856 C 367.146 307.598,367.200 307.468,367.200 305.211 C 367.200 302.104,367.800 300.874,369.680 300.121 L 371.200 299.513 371.206 297.057 C 371.213 294.001,371.806 292.799,373.600 292.200 C 374.924 291.758,375.005 291.626,375.101 289.766 C 375.312 285.632,375.497 285.201,377.424 284.348 L 379.200 283.563 379.200 281.200 C 379.200 278.305,379.811 276.859,381.169 276.535 C 382.929 276.116,383.200 275.646,383.200 273.005 C 383.200 270.312,384.175 268.400,385.549 268.400 C 386.955 268.400,387.200 267.565,387.200 262.782 C 387.200 257.705,387.273 257.523,389.800 256.348 L 391.000 255.790 391.110 249.088 C 391.231 241.668,391.381 241.198,393.887 240.371 L 395.200 239.938 395.200 200.249 C 395.200 158.636,395.241 159.600,393.484 159.600 C 391.759 159.600,391.228 158.118,391.213 153.271 C 391.200 148.650,390.880 147.600,389.490 147.600 C 387.706 147.600,387.200 146.293,387.200 141.686 C 387.200 136.826,387.035 136.004,386.057 135.991 C 383.958 135.963,383.411 134.726,383.200 129.525 L 383.000 124.604 381.438 123.795 C 379.596 122.841,379.266 122.152,379.228 119.180 C 379.199 116.880,378.734 116.000,377.549 116.000 C 376.175 116.000,375.200 114.088,375.200 111.395 C 375.200 108.754,374.929 108.284,373.169 107.865 C 371.808 107.541,371.200 106.094,371.200 103.178 L 371.200 100.794 369.631 100.166 C 368.457 99.696,367.914 99.167,367.472 98.064 C 367.043 96.991,366.509 96.455,365.504 96.092 C 363.777 95.468,363.200 94.237,363.200 91.178 L 363.200 88.794 361.600 88.153 C 360.368 87.660,359.927 87.224,359.682 86.257 C 359.440 85.302,358.957 84.815,357.674 84.228 C 356.408 83.650,355.907 83.150,355.670 82.228 C 355.466 81.434,354.938 80.804,354.177 80.447 C 351.680 79.273,351.600 79.077,351.600 74.109 C 351.600 68.563,351.493 68.400,347.857 68.400 C 345.044 68.400,344.200 67.938,343.751 66.149 C 343.583 65.477,343.002 64.954,341.963 64.538 C 340.814 64.079,340.295 63.567,339.917 62.520 C 339.539 61.476,339.019 60.961,337.880 60.505 C 336.758 60.056,336.196 59.509,335.768 58.447 C 335.348 57.404,334.762 56.822,333.668 56.362 C 332.520 55.879,332.057 55.396,331.764 54.374 C 331.464 53.327,331.078 52.938,330.049 52.642 C 329.095 52.369,328.535 51.859,328.061 50.831 C 327.189 48.943,326.962 48.813,324.519 48.806 C 321.757 48.798,320.464 48.166,320.076 46.633 C 319.840 45.704,319.346 45.210,318.074 44.628 C 316.817 44.054,316.305 43.547,316.072 42.644 C 315.854 41.805,315.282 41.180,314.214 40.616 C 313.365 40.167,312.519 39.485,312.335 39.100 C 312.151 38.715,311.846 38.085,311.657 37.700 C 311.469 37.315,310.974 36.937,310.557 36.860 C 309.526 36.670,308.000 35.207,308.000 34.410 C 308.000 33.206,307.087 32.800,304.382 32.800 C 301.510 32.800,301.023 32.514,299.950 30.200 C 299.432 29.083,299.227 28.993,296.996 28.897 C 293.323 28.739,292.958 28.579,292.248 26.804 L 291.606 25.200 289.222 25.200 C 286.114 25.200,284.985 24.646,284.225 22.746 L 283.606 21.200 281.222 21.200 C 278.306 21.200,276.859 20.592,276.535 19.231 C 276.079 17.316,275.769 17.201,271.051 17.191 C 266.097 17.181,265.353 16.880,264.415 14.500 L 263.903 13.200 259.451 13.194 C 254.444 13.187,253.260 12.804,252.672 11.000 C 252.100 9.247,251.958 9.213,245.319 9.206 C 238.672 9.199,237.328 8.883,236.935 7.231 C 236.425 5.088,238.459 5.200,200.200 5.200 C 171.640 5.200,164.413 5.303,164.072 5.713 M185.543 62.840 C 186.398 63.138,186.886 63.621,187.058 64.340 C 187.390 65.736,187.944 66.400,188.777 66.400 C 189.150 66.400,189.848 66.851,190.328 67.403 L 191.200 68.406 191.191 200.103 C 191.183 324.291,191.143 331.847,190.491 332.623 C 190.111 333.076,189.295 333.661,188.679 333.924 C 188.020 334.205,187.384 334.902,187.135 335.613 C 185.889 339.189,174.350 339.041,173.445 335.438 C 173.298 334.852,172.618 334.176,171.732 333.733 C 170.898 333.317,169.949 332.400,169.534 331.611 C 169.134 330.848,168.219 329.948,167.503 329.611 C 166.769 329.267,165.898 328.395,165.508 327.614 C 165.117 326.831,164.248 325.961,163.508 325.614 C 162.730 325.249,161.908 324.402,161.478 323.524 C 160.971 322.486,160.348 321.913,159.378 321.593 C 158.395 321.268,157.926 320.831,157.745 320.069 C 157.410 318.664,156.857 318.000,156.023 318.000 C 155.305 318.000,153.600 316.289,153.600 315.568 C 153.600 314.984,152.567 314.000,151.954 314.000 C 151.199 314.000,149.600 312.356,149.600 311.579 C 149.600 310.750,148.938 310.191,147.573 309.866 C 146.988 309.727,146.323 309.144,146.027 308.511 C 145.741 307.900,145.378 307.138,145.221 306.817 C 145.063 306.496,144.377 306.090,143.697 305.913 C 142.765 305.672,142.347 305.253,142.006 304.218 C 141.689 303.257,141.111 302.626,140.085 302.122 C 139.239 301.705,138.308 300.808,137.884 300.000 C 137.480 299.230,136.576 298.330,135.875 298.000 C 135.168 297.667,134.326 296.817,133.986 296.092 C 133.639 295.352,132.769 294.483,131.986 294.092 C 131.203 293.701,130.299 292.797,129.908 292.014 C 129.517 291.231,128.648 290.361,127.908 290.014 C 127.169 289.667,126.299 288.797,125.908 288.014 C 125.517 287.231,124.648 286.361,123.908 286.014 C 123.130 285.649,122.308 284.802,121.878 283.924 C 121.371 282.886,120.748 282.313,119.778 281.993 C 118.795 281.668,118.326 281.231,118.145 280.469 C 117.810 279.064,117.257 278.400,116.423 278.400 C 115.661 278.400,114.000 276.671,114.000 275.877 C 114.000 275.182,113.177 274.400,112.446 274.400 C 111.616 274.400,110.000 272.800,110.000 271.979 C 110.000 271.150,109.338 270.591,107.973 270.266 C 107.388 270.127,106.723 269.544,106.427 268.911 C 106.141 268.300,105.778 267.538,105.621 267.217 C 105.463 266.896,104.777 266.490,104.097 266.313 C 103.165 266.072,102.747 265.653,102.406 264.618 C 102.089 263.657,101.511 263.026,100.485 262.522 C 99.639 262.105,98.708 261.208,98.284 260.400 C 97.880 259.630,96.976 258.730,96.275 258.400 C 95.568 258.067,94.726 257.217,94.386 256.492 C 94.039 255.752,93.169 254.883,92.386 254.492 C 91.603 254.101,90.699 253.197,90.308 252.414 C 89.923 251.642,89.043 250.756,88.322 250.414 C 87.610 250.076,86.752 249.260,86.414 248.600 C 85.484 246.783,85.671 246.813,75.119 246.806 C 64.533 246.800,63.564 246.645,62.821 244.848 C 62.517 244.112,62.420 230.040,62.494 197.523 L 62.600 151.246 63.483 150.423 C 64.327 149.637,64.828 149.600,74.683 149.594 C 85.805 149.587,85.594 149.621,86.367 147.709 C 86.715 146.850,87.389 146.198,88.382 145.760 C 89.412 145.305,90.020 144.701,90.342 143.809 C 90.664 142.918,91.280 142.305,92.327 141.833 C 93.300 141.394,94.002 140.731,94.284 139.983 C 94.526 139.342,95.360 138.443,96.137 137.984 C 96.914 137.526,97.926 136.514,98.384 135.737 C 98.843 134.960,99.742 134.126,100.383 133.884 C 101.131 133.602,101.794 132.900,102.233 131.927 C 102.705 130.880,103.318 130.264,104.209 129.942 C 105.102 129.619,105.705 129.012,106.162 127.976 C 106.650 126.872,107.241 126.310,108.412 125.842 C 109.448 125.427,110.000 124.954,110.000 124.479 C 110.000 123.514,111.208 122.259,112.752 121.620 C 113.453 121.329,114.000 120.807,114.000 120.427 C 114.000 118.823,115.480 118.000,118.367 118.000 C 121.053 118.000,121.112 117.977,121.620 116.752 C 122.244 115.245,123.509 114.000,124.415 114.000 C 124.802 114.000,125.378 113.335,125.799 112.403 C 126.307 111.275,126.953 110.614,127.997 110.153 C 129.027 109.699,129.621 109.098,129.956 108.171 C 130.295 107.234,130.885 106.644,131.956 106.171 C 133.018 105.703,133.617 105.108,133.947 104.195 C 134.252 103.353,134.854 102.709,135.644 102.382 C 136.318 102.103,137.303 101.188,137.833 100.349 C 138.362 99.509,139.343 98.540,140.013 98.193 C 140.682 97.847,141.527 96.941,141.890 96.181 C 142.314 95.291,143.005 94.633,143.825 94.336 C 144.706 94.018,145.309 93.405,145.771 92.356 C 146.244 91.285,146.834 90.695,147.771 90.356 C 148.694 90.022,149.299 89.428,149.746 88.414 C 150.157 87.481,150.888 86.715,151.767 86.296 C 152.582 85.908,153.408 85.082,153.793 84.271 C 154.209 83.394,154.982 82.659,155.946 82.224 C 157.026 81.737,157.555 81.187,157.825 80.273 C 158.101 79.338,158.533 78.902,159.454 78.630 C 160.374 78.359,160.934 77.796,161.554 76.520 C 162.189 75.214,162.688 74.722,163.558 74.548 C 164.415 74.377,164.898 73.913,165.418 72.761 C 165.907 71.675,166.565 71.008,167.597 70.553 C 168.627 70.099,169.221 69.498,169.556 68.571 C 169.895 67.634,170.485 67.044,171.556 66.571 C 172.612 66.106,173.218 65.507,173.542 64.610 C 173.799 63.899,174.412 63.124,174.905 62.886 C 176.089 62.315,183.938 62.280,185.543 62.840 M280.526 94.439 C 281.055 94.680,281.777 95.482,282.129 96.221 C 282.482 96.959,283.318 97.847,283.987 98.193 C 284.657 98.540,285.638 99.509,286.167 100.349 C 286.697 101.188,287.673 102.099,288.337 102.374 C 289.988 103.058,290.142 103.538,290.386 108.766 L 290.600 113.331 292.176 114.212 C 294.204 115.345,294.338 115.755,294.372 120.892 L 294.400 125.184 295.921 125.960 C 297.785 126.911,298.400 128.171,298.400 131.039 C 298.400 133.156,298.451 133.262,299.732 133.797 C 301.968 134.732,302.181 135.271,302.400 140.542 C 302.590 145.121,302.645 145.377,303.491 145.583 C 305.716 146.125,306.000 146.831,306.000 151.825 C 306.000 156.545,306.310 157.600,307.695 157.600 C 309.564 157.600,309.790 158.390,310.000 165.667 L 310.200 172.600 311.457 173.228 C 314.205 174.602,314.000 172.119,314.000 204.046 L 314.000 232.948 313.130 233.874 C 312.652 234.383,311.968 234.800,311.610 234.800 C 310.248 234.800,310.000 235.667,310.000 240.431 C 310.000 245.498,309.998 245.502,307.495 246.753 L 306.200 247.400 306.101 251.600 C 305.970 257.144,305.878 257.442,303.994 258.403 L 302.400 259.216 302.386 263.508 C 302.370 268.370,302.004 269.401,299.951 270.368 L 298.600 271.005 298.386 275.602 C 298.135 281.014,298.049 281.248,295.984 282.159 L 294.400 282.858 294.400 285.340 C 294.400 288.222,293.759 289.407,291.748 290.248 L 290.400 290.811 290.394 295.105 C 290.387 300.012,290.019 301.085,287.994 302.096 C 286.644 302.771,286.593 302.880,286.375 305.582 C 286.054 309.576,285.570 310.000,281.338 310.000 C 277.848 310.000,276.400 309.347,276.400 307.771 C 276.400 306.969,275.439 306.000,274.644 306.000 C 273.137 306.000,272.400 304.388,272.400 301.096 C 272.400 297.663,272.644 297.177,274.943 296.028 L 276.200 295.400 276.299 291.200 C 276.430 285.656,276.522 285.358,278.406 284.397 C 279.974 283.597,280.000 283.548,280.000 281.372 C 280.000 278.658,280.839 276.904,282.307 276.544 C 283.767 276.187,283.987 275.768,283.994 273.319 C 284.002 270.538,284.621 269.337,286.464 268.524 L 288.000 267.846 288.000 263.377 C 288.000 258.408,288.406 257.391,290.786 256.406 L 292.000 255.903 292.006 251.651 C 292.013 246.822,292.357 245.827,294.400 244.740 L 295.800 243.996 296.000 237.220 C 296.209 230.122,296.603 228.800,298.503 228.800 C 299.884 228.800,300.000 227.964,300.000 217.980 C 300.000 206.644,300.131 205.954,302.467 205.020 C 304.259 204.303,304.140 203.686,302.039 202.816 C 300.106 202.015,300.000 201.279,299.994 188.481 C 299.988 176.170,299.956 175.881,298.553 175.444 C 296.611 174.838,296.212 173.810,296.000 168.860 L 295.800 164.200 294.305 163.400 C 292.330 162.343,292.262 162.150,292.014 156.818 L 291.800 152.236 290.342 151.470 C 288.341 150.418,288.000 149.416,288.000 144.589 L 288.000 140.416 286.479 139.640 C 284.387 138.573,284.000 137.467,284.000 132.561 L 284.000 128.359 282.668 127.803 C 280.672 126.968,280.220 126.165,280.000 123.057 C 279.822 120.549,279.700 120.208,278.909 120.016 C 276.684 119.476,276.400 118.769,276.400 113.775 C 276.400 109.005,276.094 108.000,274.644 108.000 C 271.243 108.000,271.470 99.567,274.911 98.085 C 275.522 97.822,276.120 97.290,276.240 96.903 C 276.977 94.522,278.626 93.573,280.526 94.439 M249.535 110.700 C 249.921 111.085,250.443 111.882,250.696 112.471 C 250.949 113.060,251.811 113.852,252.611 114.232 C 254.327 115.046,254.800 116.080,254.800 119.018 C 254.800 121.123,254.842 121.205,256.321 121.960 C 258.554 123.099,258.800 123.994,258.800 130.973 L 258.800 137.109 260.145 137.747 C 262.396 138.815,262.582 139.293,262.800 144.542 C 262.990 149.121,263.045 149.377,263.891 149.583 C 266.345 150.180,266.400 150.405,266.400 159.815 L 266.400 168.437 267.663 169.119 C 270.659 170.736,270.400 167.608,270.400 202.184 L 270.400 233.169 269.525 233.984 C 269.043 234.433,268.359 234.800,268.005 234.800 C 266.570 234.800,266.400 235.608,266.400 242.418 C 266.400 249.679,266.410 249.644,263.900 250.714 L 262.800 251.183 262.800 255.373 C 262.800 260.266,262.411 261.374,260.321 262.440 L 258.800 263.216 258.800 267.389 C 258.800 272.283,258.415 273.359,256.336 274.276 L 254.800 274.954 254.800 279.508 C 254.800 285.390,254.083 286.404,249.931 286.394 C 246.811 286.387,245.609 285.821,244.678 283.921 C 244.183 282.909,243.544 282.312,242.637 282.012 C 239.187 280.873,239.728 272.481,243.257 272.413 C 244.220 272.394,244.400 271.571,244.400 267.186 C 244.400 262.509,244.757 261.549,246.836 260.632 L 248.400 259.942 248.400 253.751 C 248.400 246.737,248.687 245.725,250.982 244.635 L 252.400 243.962 252.428 239.681 C 252.462 234.556,252.597 234.145,254.624 233.011 L 256.200 232.129 256.400 219.525 C 256.619 205.714,256.568 205.991,259.100 204.933 C 261.116 204.090,260.938 199.200,258.891 199.200 C 258.242 199.200,257.504 198.515,256.863 197.318 C 256.542 196.719,256.400 192.829,256.400 184.659 C 256.400 172.509,256.325 171.600,255.326 171.600 C 255.003 171.600,254.212 171.074,253.569 170.431 L 252.400 169.262 252.400 162.708 L 252.400 156.154 250.864 155.476 C 248.642 154.496,248.400 153.623,248.400 146.589 L 248.400 140.416 246.879 139.640 C 244.787 138.573,244.400 137.467,244.400 132.561 L 244.400 128.359 243.027 127.785 C 240.736 126.828,240.400 125.971,240.400 121.085 C 240.400 115.958,241.168 114.053,243.251 114.013 C 243.610 114.006,244.136 113.438,244.420 112.752 C 245.492 110.162,247.992 109.160,249.535 110.700 M217.127 142.034 C 217.983 142.333,218.522 142.880,218.849 143.785 C 219.179 144.697,219.778 145.301,220.799 145.751 C 222.560 146.528,223.200 147.764,223.200 150.386 C 223.200 152.801,223.490 153.600,224.367 153.600 C 226.451 153.600,226.800 154.781,226.800 161.821 L 226.800 168.412 228.100 169.177 C 230.888 170.819,230.800 170.474,230.800 179.790 C 230.800 188.397,230.933 189.200,232.354 189.200 C 234.277 189.200,234.800 190.675,234.800 196.098 C 234.800 201.733,234.726 201.937,232.257 203.172 L 231.000 203.800 230.901 212.200 C 230.792 221.516,230.685 221.969,228.354 223.021 L 226.800 223.721 226.800 230.465 C 226.800 237.788,226.664 238.239,224.291 238.817 C 223.445 239.023,223.390 239.278,223.200 243.907 C 222.945 250.112,222.654 250.511,218.209 250.736 C 215.105 250.892,212.800 249.675,212.800 247.879 C 212.800 247.559,212.254 247.071,211.586 246.794 C 209.223 245.816,208.800 244.778,208.800 239.965 C 208.800 234.982,209.131 233.987,211.142 232.930 L 212.600 232.164 212.814 227.582 C 213.062 222.250,213.130 222.057,215.105 221.000 L 216.600 220.200 216.800 211.560 C 217.019 202.107,217.058 201.953,219.500 200.933 L 220.800 200.389 220.800 196.275 C 220.800 192.176,220.512 191.200,219.303 191.200 C 217.432 191.200,217.005 189.833,216.893 183.478 C 216.774 176.683,216.628 175.600,215.835 175.600 C 215.532 175.600,214.726 175.078,214.042 174.440 L 212.800 173.279 212.800 166.716 L 212.800 160.154 211.264 159.476 C 209.186 158.560,208.800 157.482,208.800 152.600 C 208.800 147.749,209.189 146.639,211.201 145.751 C 212.212 145.305,212.822 144.696,213.142 143.810 C 213.399 143.099,214.012 142.324,214.505 142.086 C 215.667 141.526,215.667 141.526,217.127 142.034 " stroke="none" fill="#fcfcfc" fill-rule="evenodd"></path><path id="path1" d="M174.461 65.974 C 173.546 67.059,172.479 68.048,172.091 68.171 C 171.702 68.295,171.064 68.990,170.672 69.717 C 170.281 70.444,169.384 71.351,168.680 71.732 C 167.976 72.113,167.003 73.034,166.518 73.779 C 166.033 74.524,165.081 75.461,164.402 75.863 C 163.723 76.264,163.072 76.970,162.956 77.433 C 162.840 77.896,162.066 78.703,161.235 79.228 C 160.405 79.752,159.208 80.941,158.575 81.870 C 157.942 82.798,157.044 83.653,156.580 83.769 C 156.116 83.886,155.409 84.589,155.009 85.331 C 154.609 86.074,153.723 86.989,153.041 87.365 C 152.358 87.742,151.303 88.763,150.697 89.635 C 150.090 90.507,149.145 91.425,148.597 91.674 C 148.048 91.924,147.600 92.296,147.600 92.500 C 147.600 92.798,144.005 96.671,141.732 98.822 C 141.475 99.065,140.725 99.805,140.065 100.465 C 139.405 101.125,138.665 101.875,138.422 102.132 C 136.271 104.405,132.398 108.000,132.100 108.000 C 131.896 108.000,131.524 108.448,131.274 108.997 C 131.025 109.545,130.107 110.490,129.235 111.097 C 128.363 111.703,127.342 112.758,126.965 113.441 C 126.589 114.123,125.682 115.005,124.949 115.399 C 124.216 115.794,123.500 116.486,123.357 116.936 C 122.870 118.469,121.551 119.172,119.136 119.187 C 116.773 119.201,116.401 119.448,114.430 122.318 C 114.117 122.775,113.473 123.246,112.998 123.365 C 112.524 123.484,111.799 124.206,111.388 124.971 C 110.976 125.735,110.045 126.680,109.320 127.071 C 108.594 127.462,108.000 127.937,108.000 128.127 C 108.000 128.400,104.205 132.475,102.200 134.354 C 101.980 134.561,101.232 135.302,100.537 136.001 C 98.945 137.605,98.005 138.545,96.401 140.137 C 95.702 140.832,94.961 141.580,94.754 141.800 C 92.701 143.991,88.786 147.600,88.463 147.600 C 88.238 147.600,87.950 147.928,87.822 148.329 C 87.050 150.763,86.868 150.800,75.731 150.800 C 65.749 150.800,65.475 150.821,64.747 151.661 C 63.593 152.992,63.578 243.494,64.731 244.538 C 65.372 245.117,66.727 245.200,75.578 245.200 L 85.692 245.200 86.746 246.438 C 87.791 247.666,88.700 248.598,90.477 250.266 C 90.985 250.742,91.768 251.552,92.217 252.066 C 92.666 252.580,93.495 253.360,94.059 253.800 C 94.624 254.240,95.289 254.989,95.537 255.464 C 95.786 255.940,96.608 256.710,97.363 257.177 C 98.118 257.644,99.115 258.668,99.578 259.453 C 100.041 260.238,100.774 260.973,101.205 261.085 C 101.637 261.198,102.622 262.170,103.394 263.245 C 104.167 264.320,105.024 265.202,105.299 265.204 C 105.575 265.206,106.160 265.663,106.600 266.220 C 108.124 268.147,109.093 269.200,109.341 269.200 C 109.737 269.200,111.200 270.544,111.200 270.907 C 111.200 271.314,112.783 272.850,113.797 273.427 C 114.209 273.661,114.739 274.200,114.973 274.624 C 115.410 275.413,116.394 276.387,118.180 277.800 C 118.737 278.240,119.194 278.743,119.196 278.917 C 119.202 279.373,120.419 280.569,121.736 281.412 C 122.362 281.812,123.034 282.563,123.230 283.080 C 123.427 283.597,124.215 284.390,124.981 284.842 C 125.747 285.294,126.756 286.282,127.223 287.037 C 127.690 287.792,128.460 288.614,128.936 288.863 C 129.411 289.111,130.160 289.771,130.600 290.327 C 131.611 291.606,132.394 292.389,133.673 293.400 C 134.229 293.840,134.889 294.589,135.137 295.064 C 135.386 295.540,136.208 296.310,136.963 296.777 C 137.718 297.244,138.715 298.268,139.178 299.053 C 139.641 299.838,140.374 300.573,140.805 300.685 C 141.237 300.798,142.222 301.770,142.994 302.845 C 143.767 303.920,144.624 304.802,144.899 304.804 C 145.175 304.806,145.760 305.263,146.200 305.820 C 147.724 307.747,148.693 308.800,148.941 308.800 C 149.337 308.800,150.800 310.144,150.800 310.507 C 150.800 310.914,152.383 312.450,153.397 313.027 C 153.809 313.261,154.339 313.800,154.573 314.224 C 155.010 315.013,155.994 315.987,157.780 317.400 C 158.337 317.840,158.794 318.343,158.796 318.517 C 158.802 318.973,160.019 320.169,161.336 321.012 C 161.962 321.412,162.634 322.163,162.830 322.680 C 163.027 323.197,163.815 323.990,164.581 324.442 C 165.347 324.894,166.357 325.884,166.826 326.642 C 167.294 327.399,168.182 328.281,168.800 328.600 C 169.418 328.919,170.315 329.815,170.794 330.590 C 171.273 331.366,171.804 332.000,171.973 332.000 C 172.309 332.000,174.088 333.710,175.470 335.361 C 176.711 336.844,183.958 336.966,185.104 335.523 C 185.859 334.572,187.278 333.143,188.944 331.658 L 190.000 330.716 190.000 200.104 L 190.000 69.492 189.016 68.646 C 188.474 68.181,187.576 67.440,187.020 67.000 C 186.463 66.560,186.006 66.067,186.004 65.905 C 185.984 64.474,184.584 64.000,180.374 64.000 L 176.125 64.000 174.461 65.974 M277.987 97.020 C 277.505 97.802,276.635 98.738,276.055 99.100 C 274.032 100.365,273.600 101.071,273.600 103.114 C 273.600 104.933,274.677 106.800,275.726 106.800 C 277.060 106.800,277.600 108.486,277.600 112.654 C 277.600 117.282,277.567 117.207,280.525 119.395 C 281.491 120.109,281.600 120.442,281.600 122.676 C 281.600 124.910,281.707 125.236,282.649 125.881 C 285.543 127.865,285.600 127.995,285.600 132.612 C 285.600 136.712,285.637 136.891,286.652 137.730 C 289.721 140.269,289.600 139.987,289.600 144.586 C 289.600 148.453,289.674 148.866,290.477 149.504 C 293.602 151.985,293.600 151.981,293.600 156.536 L 293.600 160.733 295.300 162.056 C 297.650 163.886,297.587 163.708,297.594 168.473 L 297.600 172.746 298.900 173.637 C 301.695 175.554,301.581 174.939,301.591 188.200 L 301.600 200.200 303.673 202.028 C 306.020 204.098,305.960 204.629,303.165 206.512 L 301.800 207.431 301.693 217.886 L 301.587 228.340 300.293 229.398 C 299.582 229.980,298.685 230.711,298.300 231.024 C 297.688 231.521,297.600 232.372,297.600 237.814 C 297.600 244.687,297.810 244.058,294.652 246.670 C 293.638 247.508,293.600 247.690,293.600 251.756 C 293.600 255.773,293.552 256.015,292.577 256.886 C 289.330 259.789,289.600 259.168,289.600 263.727 C 289.600 267.864,288.774 270.000,287.174 270.000 C 286.235 270.000,285.600 271.395,285.600 273.459 C 285.600 275.745,285.268 276.280,282.477 278.496 C 281.750 279.073,281.600 279.601,281.600 281.576 C 281.600 283.864,281.540 284.004,280.100 285.080 C 277.686 286.882,277.627 287.041,277.613 291.681 C 277.600 295.844,277.571 295.983,276.552 296.681 C 274.224 298.278,273.600 299.230,273.600 301.183 C 273.600 302.995,274.606 304.800,275.616 304.800 C 276.086 304.800,277.600 306.273,277.600 306.730 C 277.600 307.720,279.542 308.800,281.321 308.800 C 283.996 308.800,284.800 307.988,284.800 305.285 C 284.800 302.644,285.203 301.860,287.217 300.589 L 288.800 299.590 288.800 295.209 C 288.800 291.015,288.844 290.789,289.823 289.914 C 292.917 287.148,292.800 287.337,292.806 285.118 C 292.813 282.670,292.845 282.612,295.100 280.856 L 296.800 279.533 296.800 275.336 C 296.800 270.781,296.798 270.785,299.923 268.304 C 300.730 267.663,300.800 267.257,300.800 263.224 L 300.800 258.841 302.300 257.743 C 304.749 255.952,304.800 255.816,304.800 251.153 C 304.800 246.932,304.819 246.844,305.900 246.042 C 308.989 243.751,308.791 244.199,308.796 239.505 C 308.800 235.296,309.291 233.600,310.507 233.600 C 310.688 233.600,311.278 233.158,311.818 232.618 L 312.800 231.636 312.787 204.118 C 312.778 183.098,312.659 176.458,312.287 176.000 C 312.019 175.670,311.125 174.896,310.300 174.280 L 308.800 173.159 308.800 166.849 C 308.800 160.455,308.363 158.800,306.674 158.800 C 305.328 158.800,304.800 157.119,304.800 152.829 C 304.800 148.611,304.417 147.202,303.271 147.200 C 301.569 147.196,300.800 145.279,300.800 141.035 C 300.800 136.330,301.091 136.990,297.700 134.017 C 296.967 133.375,296.800 132.811,296.800 130.984 C 296.800 129.048,296.656 128.620,295.748 127.870 C 292.679 125.331,292.800 125.613,292.800 121.014 C 292.800 117.147,292.726 116.734,291.923 116.096 C 288.796 113.613,288.800 113.622,288.800 109.043 L 288.800 104.825 287.053 103.513 C 286.092 102.791,285.020 101.705,284.671 101.100 C 284.322 100.495,283.624 99.806,283.119 99.569 C 282.613 99.332,281.609 98.342,280.887 97.369 C 279.302 95.232,279.107 95.209,277.987 97.020 M246.420 112.471 C 245.974 112.949,245.508 113.660,245.384 114.050 C 245.260 114.440,244.840 114.860,244.450 114.984 C 241.713 115.853,240.636 124.228,243.049 125.881 C 245.943 127.865,246.000 127.995,246.000 132.612 C 246.000 136.712,246.037 136.891,247.052 137.730 C 250.210 140.342,250.000 139.713,250.000 146.586 C 250.000 152.028,250.088 152.879,250.700 153.376 C 251.085 153.689,251.985 154.423,252.700 155.008 L 254.000 156.071 254.000 162.254 C 254.000 169.119,253.680 168.167,256.977 171.114 L 258.000 172.028 258.000 184.198 C 258.000 193.453,258.120 196.465,258.500 196.770 C 262.039 199.614,262.000 199.558,261.991 201.941 C 261.981 204.408,261.515 205.244,259.300 206.763 L 258.000 207.654 258.000 219.858 L 258.000 232.062 256.877 233.131 C 256.259 233.719,255.359 234.513,254.877 234.896 C 254.074 235.534,254.000 235.947,254.000 239.814 C 254.000 244.413,254.121 244.131,251.052 246.670 L 250.000 247.539 250.000 253.693 C 250.000 260.384,250.026 260.295,247.500 262.143 L 246.000 263.241 246.000 267.202 C 246.000 271.306,245.557 273.033,244.410 273.397 C 241.419 274.346,240.939 278.827,243.621 280.769 C 244.512 281.415,245.643 282.541,246.134 283.271 C 246.953 284.489,247.223 284.610,249.359 284.721 C 252.912 284.906,253.200 284.490,253.200 279.174 L 253.200 274.871 254.500 273.808 C 255.215 273.223,256.115 272.489,256.500 272.176 C 257.087 271.700,257.200 270.923,257.200 267.373 C 257.200 262.726,257.004 263.157,260.442 260.242 C 261.101 259.684,261.200 259.026,261.200 255.219 C 261.200 250.940,261.225 250.820,262.249 250.119 C 265.274 248.045,265.200 248.264,265.200 241.423 C 265.200 235.091,265.546 233.600,267.017 233.600 C 267.258 233.600,267.848 233.149,268.328 232.597 L 269.200 231.594 269.187 202.097 C 269.178 179.521,269.060 172.459,268.687 172.000 C 268.419 171.670,267.525 170.896,266.700 170.280 L 265.200 169.159 265.200 160.795 C 265.200 152.203,264.917 150.800,263.186 150.800 C 261.716 150.800,261.200 149.259,261.200 144.872 C 261.200 140.536,261.177 140.421,260.151 139.719 C 257.126 137.645,257.200 137.864,257.200 131.018 C 257.200 125.585,257.112 124.726,256.500 124.215 C 253.344 121.580,253.200 121.353,253.200 119.027 C 253.200 117.205,253.038 116.663,252.323 116.096 C 251.201 115.206,249.594 113.599,248.704 112.477 C 247.832 111.379,247.439 111.377,246.420 112.471 M213.776 145.307 C 212.663 146.458,211.448 147.632,211.076 147.916 C 210.217 148.571,210.066 156.500,210.900 157.170 C 211.175 157.391,212.075 158.137,212.900 158.828 L 214.400 160.083 214.400 166.272 L 214.400 172.461 215.452 173.330 C 218.614 175.946,218.400 175.290,218.400 182.349 L 218.400 188.735 219.800 189.600 C 223.683 192.000,223.661 200.469,219.767 202.766 L 218.400 203.573 218.394 211.887 C 218.391 216.459,218.256 220.385,218.094 220.610 C 217.932 220.836,217.035 221.616,216.100 222.344 L 214.400 223.667 214.400 227.864 C 214.400 232.419,214.402 232.415,211.277 234.896 C 209.848 236.031,209.949 243.641,211.408 244.681 C 213.149 245.923,213.811 246.561,214.746 247.900 C 215.596 249.116,215.806 249.200,218.005 249.200 C 221.278 249.200,221.600 248.667,221.600 243.258 C 221.600 239.128,222.385 237.204,224.071 237.200 C 225.323 237.198,225.600 235.845,225.613 229.671 C 225.627 223.277,226.029 221.600,227.549 221.600 C 229.309 221.600,229.600 220.173,229.600 211.545 L 229.600 203.241 231.100 202.120 C 233.645 200.219,233.600 200.326,233.600 196.210 C 233.600 192.376,232.811 190.400,231.280 190.400 C 229.837 190.400,229.600 189.051,229.587 180.769 C 229.573 171.896,229.640 172.177,227.100 170.280 L 225.600 169.159 225.600 162.795 C 225.600 156.363,225.206 154.800,223.586 154.800 C 222.442 154.800,221.600 153.173,221.594 150.953 C 221.587 148.284,221.463 148.013,219.800 147.032 C 219.140 146.643,218.107 145.622,217.504 144.762 C 216.131 142.805,216.205 142.795,213.776 145.307 " stroke="none" fill="#a44ca4" fill-rule="evenodd"></path><path id="path2" d="" stroke="none" fill="#c4d0100" fill-rule="evenodd"></path><path id="path3" d="" stroke="none" fill="#c4d0100" fill-rule="evenodd"></path></g></svg>