<svg id="svg" version="1.1" xmlns="http://www.w3.org/2000/svg" xmlns:xlink="http://www.w3.org/1999/xlink" width="400" height="400" viewBox="0, 0, 400,400"><g id="svgg"><path id="path0" d="M163.862 5.531 C 163.498 5.934,163.200 6.467,163.200 6.716 C 163.200 8.403,161.655 8.800,155.096 8.800 C 148.687 8.800,147.600 9.031,147.600 10.390 C 147.600 12.078,145.724 12.800,141.318 12.806 C 136.530 12.813,136.389 12.858,135.452 14.688 C 134.500 16.546,133.734 16.800,129.088 16.800 C 124.662 16.800,124.046 17.044,123.440 19.039 C 123.088 20.196,121.561 20.800,118.986 20.800 C 116.859 20.800,116.786 20.838,115.751 22.500 C 115.169 23.435,114.623 24.279,114.538 24.375 C 114.453 24.471,113.088 24.651,111.505 24.775 C 108.817 24.985,108.587 25.078,108.014 26.186 C 106.939 28.263,106.443 28.545,103.451 28.778 C 100.680 28.994,100.581 29.039,99.908 30.387 C 99.521 31.163,98.597 32.092,97.815 32.493 C 97.045 32.888,96.117 33.794,95.753 34.506 C 94.861 36.251,94.239 36.566,91.217 36.800 C 88.733 36.992,88.606 37.055,87.875 38.446 C 87.445 39.266,86.572 40.131,85.858 40.446 C 85.122 40.770,84.335 41.565,83.961 42.361 C 83.591 43.150,82.762 43.991,81.990 44.361 C 80.114 45.261,80.111 45.811,81.976 46.874 C 82.870 47.383,83.712 48.160,83.848 48.600 C 84.210 49.773,85.224 50.800,86.019 50.800 C 86.402 50.800,86.826 51.025,86.962 51.300 C 88.111 53.626,89.174 54.689,91.500 55.838 C 91.775 55.974,92.000 56.398,92.000 56.781 C 92.000 57.549,93.197 58.800,93.932 58.800 C 94.190 58.800,95.035 59.681,95.808 60.759 C 96.582 61.836,97.617 62.818,98.108 62.941 C 98.598 63.064,99.347 63.810,99.771 64.598 C 100.195 65.385,101.117 66.303,101.819 66.636 C 102.522 66.969,103.435 67.874,103.848 68.647 C 104.262 69.420,105.207 70.341,105.949 70.695 C 106.776 71.089,107.513 71.851,107.853 72.665 C 108.210 73.519,108.881 74.190,109.735 74.547 C 110.583 74.901,111.311 75.626,111.751 76.554 C 112.189 77.475,112.920 78.206,113.751 78.554 C 114.549 78.887,115.314 79.630,115.705 80.451 C 116.059 81.193,116.980 82.138,117.753 82.552 C 118.526 82.965,119.431 83.878,119.764 84.581 C 120.097 85.283,121.003 86.199,121.776 86.615 C 122.570 87.042,123.351 87.857,123.570 88.485 C 123.783 89.097,124.462 89.821,125.079 90.093 C 126.187 90.582,127.022 91.464,127.800 92.966 C 128.149 93.640,129.480 94.638,131.100 95.438 C 131.375 95.574,131.600 95.998,131.600 96.381 C 131.600 97.147,132.797 98.400,133.529 98.400 C 133.785 98.400,134.549 99.165,135.226 100.100 C 136.608 102.007,137.180 102.194,137.804 100.943 C 138.469 99.608,139.211 98.838,140.351 98.297 C 140.928 98.024,141.655 97.221,141.966 96.514 C 142.294 95.769,143.088 94.965,143.853 94.601 C 144.613 94.241,145.448 93.398,145.818 92.618 C 146.200 91.813,147.026 90.994,147.851 90.603 C 148.691 90.204,149.504 89.389,149.909 88.540 C 150.316 87.687,151.074 86.929,151.841 86.609 C 152.581 86.300,153.467 85.434,153.982 84.517 C 154.492 83.610,155.350 82.768,156.022 82.514 C 156.660 82.273,157.409 81.564,157.687 80.938 C 158.315 79.518,158.713 79.117,160.106 78.501 C 160.714 78.232,161.432 77.514,161.701 76.906 C 162.316 75.517,162.719 75.115,164.121 74.494 C 164.747 74.217,165.483 73.421,165.789 72.688 C 166.133 71.864,166.869 71.125,167.772 70.694 C 168.651 70.275,169.466 69.469,169.872 68.618 C 170.265 67.795,171.088 66.965,171.888 66.585 C 172.633 66.232,173.397 65.534,173.587 65.033 C 174.367 62.982,174.910 62.800,180.247 62.800 C 185.435 62.800,187.200 63.432,187.200 65.291 C 187.200 65.581,187.827 66.156,188.593 66.568 C 191.392 68.076,191.186 64.532,191.298 113.080 L 191.400 156.994 192.843 157.673 C 193.709 158.081,194.539 158.883,194.917 159.676 C 195.264 160.404,196.180 161.338,196.953 161.752 C 197.726 162.165,198.631 163.078,198.964 163.781 C 199.297 164.483,200.215 165.405,201.002 165.829 C 201.790 166.253,202.536 167.002,202.659 167.492 C 202.782 167.983,203.764 169.018,204.841 169.792 C 205.919 170.565,206.800 171.441,206.800 171.737 C 206.800 172.378,208.067 173.600,208.731 173.600 C 209.372 173.600,210.800 175.076,210.800 175.738 C 210.800 176.324,212.038 177.592,212.631 177.613 C 213.273 177.636,214.582 178.959,215.092 180.100 C 216.032 182.205,217.306 180.989,217.123 178.162 C 217.010 176.418,216.852 176.158,215.200 174.998 L 213.400 173.734 213.200 166.986 L 213.000 160.237 211.542 159.471 C 209.542 158.418,209.200 157.415,209.200 152.600 C 209.200 147.836,209.578 146.691,211.443 145.807 C 212.225 145.435,213.047 144.601,213.435 143.783 C 214.538 141.458,217.475 141.367,218.412 143.630 C 218.695 144.311,219.610 145.301,220.446 145.829 C 222.406 147.067,222.800 147.859,222.800 150.569 C 222.800 152.749,222.831 152.809,224.500 153.849 C 225.435 154.431,226.290 154.988,226.400 155.086 C 226.510 155.184,226.690 158.355,226.800 162.132 L 227.000 169.000 228.330 169.664 C 230.747 170.871,230.773 170.986,230.787 180.273 C 230.799 188.369,230.835 188.757,231.594 188.998 C 234.078 189.786,234.800 191.365,234.800 196.005 L 234.800 200.349 236.386 201.240 C 237.258 201.730,238.241 202.700,238.571 203.394 C 238.900 204.089,239.815 205.005,240.602 205.429 C 241.390 205.853,242.136 206.602,242.259 207.092 C 242.382 207.583,243.364 208.618,244.441 209.392 C 245.519 210.165,246.400 211.041,246.400 211.337 C 246.400 212.045,247.695 213.200,248.489 213.200 C 248.833 213.200,249.226 213.425,249.362 213.700 C 250.511 216.026,251.574 217.089,253.900 218.238 C 254.175 218.374,254.400 218.804,254.400 219.194 C 254.400 220.293,255.462 221.013,256.191 220.408 C 256.659 220.019,256.804 218.544,256.891 213.259 L 257.000 206.600 258.906 205.400 L 260.812 204.200 260.706 202.032 C 260.608 200.019,260.501 199.810,259.216 199.093 C 256.766 197.728,256.827 198.091,256.813 184.762 C 256.799 171.923,256.699 171.200,254.938 171.200 C 253.268 171.200,252.823 169.528,252.710 162.819 L 252.600 156.268 251.200 155.497 C 248.999 154.285,249.011 154.327,248.800 147.119 L 248.600 140.276 247.069 139.483 C 245.104 138.465,244.803 137.591,244.787 132.874 C 244.774 128.890,244.358 127.600,243.085 127.600 C 241.477 127.600,240.800 125.712,240.805 121.246 C 240.812 115.870,240.923 115.503,242.873 114.407 C 243.847 113.859,244.695 112.993,245.023 112.208 C 246.154 109.500,249.368 109.612,250.337 112.392 C 250.584 113.099,251.281 113.791,252.174 114.214 C 254.060 115.109,254.165 115.315,254.400 118.563 C 254.597 121.290,254.620 121.336,256.131 122.118 C 258.205 123.192,258.400 123.933,258.400 130.764 C 258.400 136.833,258.707 138.000,260.302 138.000 C 261.732 138.000,262.400 140.053,262.400 144.449 L 262.400 148.790 264.100 149.849 C 265.035 150.431,265.890 150.988,266.000 151.086 C 266.110 151.184,266.290 155.255,266.400 160.132 L 266.600 169.000 267.958 169.678 C 268.705 170.051,269.515 170.555,269.758 170.798 C 270.070 171.110,270.259 180.783,270.400 203.717 L 270.600 236.194 272.043 236.873 C 272.909 237.281,273.739 238.083,274.117 238.876 C 274.464 239.604,275.380 240.538,276.153 240.952 C 276.926 241.365,277.831 242.278,278.164 242.981 C 278.497 243.683,279.415 244.605,280.202 245.029 C 280.990 245.453,281.736 246.202,281.859 246.692 C 281.982 247.183,282.964 248.218,284.041 248.992 C 285.119 249.765,286.000 250.641,286.000 250.937 C 286.000 251.594,287.274 252.800,287.967 252.800 C 288.548 252.800,289.967 254.381,289.987 255.051 C 290.013 255.940,291.146 256.543,291.788 256.010 C 292.230 255.643,292.403 254.368,292.488 250.861 L 292.600 246.200 294.493 245.000 L 296.385 243.800 296.393 237.376 C 296.401 230.363,296.453 230.178,298.800 228.897 L 300.200 228.132 300.400 217.299 C 300.510 211.340,300.690 206.389,300.800 206.295 C 300.910 206.202,301.764 205.705,302.697 205.191 C 304.367 204.271,304.316 202.800,302.614 202.800 C 300.666 202.800,300.613 202.465,300.400 188.966 L 300.200 176.267 298.400 175.001 L 296.600 173.735 296.486 169.183 C 296.370 164.544,295.932 163.200,294.534 163.200 C 293.123 163.200,292.604 161.672,292.400 156.923 L 292.200 152.266 290.800 151.496 C 288.630 150.303,288.612 150.256,288.400 145.118 L 288.200 140.275 286.669 139.482 C 284.704 138.465,284.403 137.591,284.387 132.874 C 284.374 128.890,283.958 127.600,282.685 127.600 C 281.410 127.600,280.400 125.639,280.400 123.165 C 280.400 120.858,280.385 120.828,278.603 119.602 C 276.516 118.166,276.431 117.907,276.299 112.600 L 276.200 108.600 274.951 108.000 C 271.622 106.400,271.503 98.400,274.809 98.400 C 275.385 98.400,276.043 97.674,276.812 96.191 C 278.065 93.776,280.911 93.965,282.044 96.538 C 282.350 97.232,283.072 98.024,283.649 98.297 C 284.789 98.838,285.531 99.609,286.196 100.943 C 286.431 101.414,287.158 102.052,287.812 102.360 C 289.581 103.195,289.782 103.781,290.000 108.767 L 290.200 113.334 291.600 114.104 C 293.771 115.297,293.788 115.343,294.000 120.481 L 294.200 125.325 295.731 126.118 C 297.495 127.031,298.000 128.072,298.000 130.797 C 298.000 132.765,298.694 134.000,299.800 134.000 C 301.332 134.000,302.000 135.957,302.000 140.449 L 302.000 144.790 303.566 145.779 C 305.742 147.152,305.776 147.243,306.000 152.386 L 306.200 156.973 307.386 157.586 C 309.793 158.832,309.784 158.802,310.000 166.168 L 310.200 172.995 311.485 173.600 C 314.129 174.846,313.973 172.952,313.987 204.069 L 314.000 232.338 312.794 233.544 C 312.131 234.207,311.231 234.863,310.794 235.002 C 310.063 235.234,310.000 235.616,310.000 239.845 C 310.000 244.543,309.317 246.400,307.590 246.400 C 306.361 246.400,306.000 247.569,306.000 251.545 C 306.000 256.297,305.632 257.491,303.994 258.062 C 302.304 258.651,302.000 259.457,302.000 263.341 C 302.000 267.458,302.129 267.834,303.813 268.633 C 304.577 268.995,305.411 269.836,305.782 270.618 C 306.172 271.440,306.992 272.243,307.862 272.656 C 308.775 273.089,309.501 273.822,309.853 274.665 C 310.210 275.519,310.881 276.190,311.735 276.547 C 312.549 276.887,313.311 277.624,313.705 278.451 C 314.059 279.193,314.980 280.138,315.753 280.552 C 316.526 280.965,317.426 281.865,317.753 282.552 C 318.080 283.238,318.980 284.138,319.753 284.552 C 320.552 284.979,321.326 285.785,321.548 286.422 C 321.778 287.083,322.605 287.920,323.569 288.470 C 324.467 288.982,325.312 289.760,325.448 290.200 C 325.810 291.373,326.824 292.400,327.619 292.400 C 328.002 292.400,328.426 292.625,328.562 292.900 C 329.711 295.226,330.774 296.289,333.100 297.438 C 333.375 297.574,333.600 297.998,333.600 298.381 C 333.600 299.176,334.627 300.190,335.800 300.552 C 336.240 300.688,337.018 301.533,337.530 302.431 C 338.080 303.395,338.917 304.222,339.578 304.452 C 340.215 304.674,341.021 305.448,341.448 306.247 C 341.862 307.020,342.771 307.924,343.469 308.257 C 344.177 308.594,345.023 309.462,345.382 310.218 C 345.772 311.040,346.592 311.843,347.462 312.256 C 348.377 312.690,349.101 313.422,349.455 314.270 C 349.803 315.103,350.476 315.792,351.250 316.108 C 351.983 316.407,352.851 317.262,353.380 318.206 C 354.423 320.070,354.786 320.130,355.600 318.574 C 356.388 317.070,356.775 316.690,358.138 316.087 C 358.764 315.809,359.473 315.060,359.714 314.422 C 359.965 313.758,360.805 312.895,361.680 312.403 C 362.521 311.931,363.482 311.016,363.816 310.370 C 364.150 309.724,365.138 308.744,366.011 308.193 C 367.545 307.224,367.600 307.115,367.600 305.014 C 367.600 302.439,368.204 300.912,369.361 300.560 C 371.137 300.021,371.600 299.203,371.600 296.608 C 371.600 293.967,372.303 292.825,374.299 292.219 C 375.306 291.914,375.546 291.189,375.696 288.000 C 375.798 285.850,375.843 285.773,377.693 284.600 L 379.585 283.400 379.593 280.882 C 379.600 278.359,380.657 276.400,382.010 276.400 C 383.067 276.400,383.600 275.203,383.600 272.829 C 383.600 270.210,384.225 269.151,386.216 268.394 C 387.182 268.027,387.200 267.936,387.200 263.464 C 387.200 258.864,387.969 256.800,389.683 256.800 C 390.952 256.800,391.200 255.620,391.200 249.590 C 391.200 242.829,391.477 241.868,393.733 240.800 L 395.000 240.200 395.102 200.128 C 395.203 160.423,395.197 160.053,394.408 159.802 C 391.915 159.011,391.200 157.440,391.200 152.756 L 391.200 148.373 389.833 147.566 C 387.530 146.208,387.200 145.335,387.200 140.608 L 387.200 136.388 385.900 135.618 C 383.591 134.249,383.600 134.274,383.600 129.446 C 383.600 124.895,383.189 123.600,381.745 123.600 C 380.433 123.600,379.795 122.400,379.600 119.565 C 379.405 116.741,379.363 116.644,378.000 115.895 C 375.897 114.741,375.816 114.591,375.600 111.482 C 375.402 108.625,375.388 108.597,373.931 107.912 C 371.999 107.005,371.836 106.692,371.600 103.437 C 371.403 100.721,371.375 100.661,369.900 99.898 C 369.027 99.446,368.137 98.567,367.769 97.792 C 367.403 97.021,366.565 96.190,365.774 95.815 C 364.029 94.986,363.603 94.151,363.587 91.526 C 363.574 89.301,362.946 88.000,361.885 88.000 C 361.250 88.000,359.600 86.207,359.600 85.517 C 359.600 84.981,358.772 84.267,357.494 83.701 C 356.886 83.432,356.168 82.714,355.899 82.106 C 355.309 80.773,354.615 80.000,354.009 80.000 C 352.370 80.000,351.600 77.963,351.600 73.622 C 351.600 68.592,351.478 68.400,348.302 68.400 C 345.917 68.400,344.012 67.303,343.993 65.918 C 343.989 65.633,343.134 64.860,342.093 64.200 C 341.020 63.520,340.150 62.648,340.084 62.187 C 340.017 61.723,339.199 60.910,338.176 60.292 C 337.190 59.697,336.215 58.764,336.008 58.220 C 335.800 57.675,334.891 56.763,333.987 56.192 C 333.054 55.603,332.169 54.656,331.942 54.006 C 331.698 53.305,331.106 52.706,330.424 52.468 C 329.809 52.254,328.781 51.296,328.140 50.339 C 326.986 48.619,326.946 48.599,324.395 48.479 C 321.700 48.352,320.644 47.800,320.157 46.266 C 319.828 45.229,319.300 44.723,317.894 44.101 C 317.286 43.832,316.568 43.114,316.299 42.506 C 315.690 41.130,315.279 40.714,313.947 40.125 C 313.367 39.869,312.659 39.129,312.371 38.480 C 312.084 37.832,311.237 36.971,310.489 36.568 C 309.741 36.166,308.740 35.154,308.265 34.321 C 307.413 32.828,307.364 32.806,304.958 32.803 C 302.510 32.800,300.400 31.683,300.400 30.391 C 300.400 29.330,299.204 28.800,296.810 28.800 C 294.256 28.800,292.400 27.719,292.400 26.232 C 292.400 25.346,291.111 24.804,288.926 24.772 C 286.260 24.733,285.539 24.364,284.605 22.562 C 283.799 21.006,283.786 20.999,280.892 20.774 C 277.744 20.529,277.493 20.391,276.478 18.358 L 275.800 17.000 271.200 16.786 C 266.131 16.551,265.355 16.336,264.968 15.063 C 264.345 13.017,263.775 12.800,259.008 12.800 C 254.465 12.800,252.800 12.193,252.800 10.536 C 252.800 9.109,251.420 8.800,245.050 8.800 C 238.528 8.800,236.800 8.295,236.800 6.390 C 236.800 4.780,237.269 4.800,200.091 4.800 C 166.142 4.800,164.494 4.833,163.862 5.531 M37.067 88.667 C 36.920 88.813,36.794 90.028,36.787 91.367 C 36.773 94.064,36.409 94.762,34.506 95.746 C 33.794 96.114,32.888 97.045,32.493 97.815 C 32.092 98.597,31.163 99.521,30.387 99.908 C 29.039 100.581,28.994 100.680,28.778 103.451 C 28.545 106.443,28.263 106.939,26.186 108.014 C 25.078 108.587,24.985 108.817,24.775 111.505 C 24.651 113.088,24.471 114.453,24.375 114.538 C 24.279 114.623,23.435 115.169,22.500 115.751 C 20.838 116.786,20.800 116.859,20.800 118.986 C 20.800 121.561,20.196 123.088,19.039 123.440 C 17.044 124.046,16.800 124.662,16.800 129.088 C 16.800 133.734,16.546 134.500,14.688 135.452 C 12.858 136.389,12.813 136.530,12.806 141.318 C 12.800 145.724,12.078 147.600,10.390 147.600 C 9.031 147.600,8.800 148.687,8.800 155.096 C 8.800 161.720,8.407 163.200,6.646 163.200 C 4.749 163.200,4.800 162.176,4.800 200.160 C 4.800 237.265,4.780 236.800,6.390 236.800 C 8.301 236.800,8.800 238.522,8.800 245.120 C 8.800 251.625,9.085 252.800,10.662 252.800 C 12.181 252.800,12.800 254.612,12.800 259.064 C 12.800 263.770,13.021 264.347,15.063 264.968 C 16.336 265.355,16.551 266.131,16.786 271.200 L 17.000 275.800 18.358 276.478 C 20.391 277.493,20.529 277.744,20.774 280.892 C 20.999 283.786,21.006 283.799,22.562 284.605 C 24.364 285.539,24.733 286.260,24.772 288.926 C 24.804 291.111,25.346 292.400,26.232 292.400 C 27.719 292.400,28.800 294.256,28.800 296.810 C 28.800 299.204,29.330 300.400,30.391 300.400 C 31.687 300.400,32.800 302.510,32.800 304.967 C 32.800 307.369,32.829 307.433,34.235 308.191 C 35.025 308.616,36.046 309.617,36.506 310.416 C 36.965 311.214,37.863 312.098,38.501 312.380 C 39.138 312.663,39.869 313.367,40.125 313.947 C 40.714 315.279,41.130 315.690,42.506 316.299 C 43.114 316.568,43.832 317.286,44.101 317.894 C 44.723 319.300,45.229 319.828,46.266 320.157 C 47.800 320.644,48.352 321.700,48.479 324.395 C 48.599 326.946,48.619 326.986,50.339 328.140 C 51.296 328.781,52.254 329.809,52.468 330.424 C 52.706 331.106,53.305 331.698,54.006 331.942 C 54.656 332.169,55.603 333.054,56.192 333.987 C 56.763 334.891,57.675 335.800,58.220 336.008 C 58.764 336.215,59.697 337.190,60.292 338.176 C 60.910 339.199,61.723 340.017,62.187 340.084 C 62.641 340.149,63.524 341.016,64.185 342.045 C 64.853 343.083,65.869 344.077,66.511 344.319 C 67.185 344.574,67.831 345.228,68.092 345.920 C 68.335 346.564,69.126 347.409,69.849 347.798 C 70.573 348.188,71.625 349.203,72.188 350.053 C 73.182 351.555,73.279 351.600,75.547 351.600 C 77.889 351.600,80.000 352.743,80.000 354.009 C 80.000 354.615,80.773 355.309,82.106 355.899 C 82.714 356.168,83.432 356.886,83.701 357.494 C 84.267 358.772,84.981 359.600,85.517 359.600 C 86.231 359.600,88.000 361.261,88.000 361.932 C 88.000 362.303,88.812 363.096,89.808 363.698 C 90.826 364.313,91.798 365.269,92.033 365.887 C 92.586 367.342,93.051 367.587,95.274 367.594 C 97.931 367.603,98.976 368.118,99.882 369.869 C 100.666 371.384,100.703 371.402,103.477 371.600 C 106.394 371.808,107.384 372.289,107.837 373.717 C 108.314 375.220,109.053 375.600,111.495 375.600 C 114.120 375.600,114.794 375.967,115.902 378.000 C 116.645 379.364,116.739 379.405,119.565 379.600 C 122.446 379.799,123.600 380.432,123.600 381.814 C 123.600 383.172,125.018 383.600,129.516 383.600 C 134.268 383.600,134.251 383.594,135.618 385.900 C 136.340 387.119,136.527 387.200,138.620 387.200 C 141.358 387.200,142.131 387.590,143.411 389.617 L 144.410 391.200 150.774 391.200 L 157.138 391.200 158.344 392.406 C 159.007 393.069,159.663 393.970,159.802 394.408 C 160.053 395.197,160.423 395.203,200.128 395.102 L 240.200 395.000 240.800 393.733 C 241.868 391.477,242.829 391.200,249.590 391.200 C 255.620 391.200,256.800 390.952,256.800 389.683 C 256.800 387.969,258.864 387.200,263.464 387.200 C 267.936 387.200,268.027 387.182,268.394 386.216 C 269.151 384.225,270.210 383.600,272.829 383.600 C 275.203 383.600,276.400 383.067,276.400 382.010 C 276.400 380.657,278.359 379.600,280.882 379.593 L 283.400 379.585 284.600 377.693 L 285.800 375.800 288.392 375.679 C 290.942 375.559,292.400 374.879,292.400 373.808 C 292.400 372.551,294.236 371.600,296.664 371.600 C 299.199 371.600,300.024 371.126,300.560 369.361 C 300.912 368.204,302.439 367.600,305.014 367.600 C 307.104 367.600,307.228 367.539,308.163 366.058 C 308.699 365.210,309.781 364.136,310.568 363.672 C 312.390 362.597,312.368 362.220,310.435 361.367 C 308.977 360.724,308.408 360.049,307.849 358.300 C 307.726 357.915,307.304 357.594,306.913 357.587 C 305.876 357.569,305.020 356.793,304.255 355.177 C 303.808 354.232,303.141 353.595,302.269 353.279 C 301.359 352.950,300.749 352.344,300.280 351.302 C 299.856 350.359,299.123 349.577,298.310 349.200 C 297.597 348.869,296.687 347.971,296.283 347.200 C 295.880 346.430,294.976 345.530,294.275 345.200 C 293.564 344.866,292.756 344.047,292.449 343.350 C 292.132 342.631,291.324 341.826,290.545 341.454 C 289.759 341.080,288.920 340.240,288.545 339.455 C 288.171 338.668,287.332 337.829,286.545 337.455 C 285.760 337.080,284.920 336.241,284.546 335.455 C 284.174 334.676,283.369 333.868,282.650 333.551 C 281.948 333.242,281.056 332.358,280.616 331.536 C 280.185 330.731,279.285 329.831,278.616 329.536 C 277.947 329.241,277.130 328.426,276.800 327.725 C 276.470 327.024,275.570 326.120,274.800 325.717 C 274.029 325.313,273.131 324.403,272.800 323.690 C 272.428 322.888,271.642 322.144,270.735 321.736 C 269.368 321.121,268.801 320.429,268.249 318.700 C 268.126 318.315,267.704 317.994,267.313 317.987 C 266.276 317.969,265.420 317.193,264.655 315.577 C 264.208 314.632,263.541 313.995,262.669 313.679 C 261.759 313.350,261.149 312.744,260.680 311.702 C 260.256 310.759,259.523 309.977,258.710 309.600 C 257.997 309.269,257.087 308.371,256.683 307.600 C 256.280 306.830,255.376 305.930,254.675 305.600 C 253.964 305.266,253.156 304.447,252.849 303.750 C 252.532 303.031,251.724 302.226,250.945 301.854 C 250.159 301.480,249.320 300.640,248.945 299.855 C 248.571 299.068,247.732 298.229,246.945 297.855 C 246.160 297.480,245.320 296.641,244.946 295.855 C 244.574 295.076,243.769 294.268,243.050 293.951 C 242.348 293.642,241.456 292.758,241.016 291.936 C 240.585 291.131,239.685 290.231,239.016 289.936 C 238.347 289.641,237.530 288.826,237.200 288.125 C 236.870 287.424,235.970 286.520,235.200 286.117 C 234.429 285.713,233.531 284.803,233.200 284.090 C 232.826 283.282,232.042 282.544,231.115 282.127 C 230.049 281.648,229.458 281.029,229.019 279.930 C 228.639 278.982,228.139 278.395,227.703 278.387 C 226.638 278.368,225.647 277.453,225.151 276.033 C 224.835 275.124,224.279 274.585,223.223 274.163 C 222.172 273.742,221.546 273.137,221.073 272.085 C 220.656 271.158,219.918 270.374,219.110 270.000 C 218.397 269.669,217.487 268.771,217.083 268.000 C 216.680 267.230,215.776 266.330,215.075 266.000 C 214.364 265.666,213.556 264.847,213.249 264.150 C 212.932 263.431,212.124 262.626,211.345 262.254 C 210.559 261.880,209.720 261.040,209.345 260.255 C 208.971 259.468,208.132 258.629,207.345 258.255 C 206.560 257.880,205.720 257.041,205.346 256.255 C 204.974 255.476,204.169 254.668,203.450 254.351 C 202.748 254.042,201.856 253.158,201.416 252.336 C 200.985 251.531,200.085 250.631,199.416 250.336 C 198.747 250.041,197.930 249.226,197.600 248.525 C 197.270 247.824,196.373 246.917,195.606 246.509 C 194.840 246.101,193.940 245.235,193.606 244.584 C 192.874 243.154,192.444 242.808,191.736 243.080 C 191.292 243.250,191.200 250.863,191.200 287.257 C 191.200 335.694,191.361 332.647,188.760 333.554 C 187.969 333.830,187.373 334.445,186.975 335.398 C 185.533 338.849,174.336 338.588,173.457 335.084 C 173.321 334.542,172.676 333.914,171.912 333.577 C 171.139 333.237,170.271 332.386,169.800 331.505 C 169.337 330.639,168.538 329.848,167.903 329.627 C 167.260 329.402,166.356 328.498,165.716 327.438 C 165.092 326.405,164.278 325.583,163.813 325.516 C 163.359 325.451,162.476 324.584,161.815 323.555 C 161.147 322.517,160.131 321.523,159.489 321.281 C 158.815 321.026,158.169 320.372,157.908 319.680 C 157.665 319.036,156.862 318.184,156.124 317.787 C 155.385 317.389,154.416 316.474,153.970 315.752 C 153.524 315.031,152.569 314.076,151.848 313.630 C 151.126 313.184,150.211 312.215,149.813 311.476 C 149.416 310.738,148.593 309.946,147.986 309.717 C 147.362 309.481,146.473 308.584,145.941 307.653 C 145.423 306.747,144.799 306.005,144.554 306.003 C 143.780 305.998,142.000 304.371,142.000 303.668 C 142.000 303.297,141.188 302.504,140.192 301.902 C 139.198 301.301,138.215 300.364,138.008 299.820 C 137.800 299.275,136.891 298.363,135.987 297.792 C 135.033 297.190,134.169 296.258,133.931 295.574 C 133.686 294.872,133.147 294.302,132.598 294.164 C 131.508 293.890,130.198 292.551,129.830 291.333 C 129.685 290.857,129.036 290.282,128.387 290.055 C 127.653 289.800,126.795 288.961,126.116 287.838 C 125.492 286.805,124.678 285.983,124.213 285.916 C 123.759 285.851,122.876 284.984,122.215 283.955 C 121.547 282.917,120.531 281.923,119.889 281.681 C 119.222 281.429,118.569 280.773,118.315 280.100 C 118.074 279.462,117.212 278.564,116.378 278.085 C 115.552 277.609,114.649 276.707,114.372 276.081 C 114.094 275.454,113.214 274.565,112.416 274.106 C 111.617 273.646,110.632 272.655,110.227 271.902 C 109.822 271.150,108.993 270.346,108.386 270.117 C 107.762 269.881,106.873 268.984,106.341 268.053 C 105.823 267.147,105.199 266.405,104.954 266.403 C 104.180 266.398,102.400 264.771,102.400 264.068 C 102.400 263.697,101.588 262.904,100.592 262.302 C 99.598 261.701,98.615 260.764,98.408 260.220 C 98.200 259.675,97.291 258.763,96.387 258.192 C 95.433 257.590,94.569 256.658,94.331 255.974 C 94.086 255.272,93.547 254.702,92.998 254.564 C 91.908 254.290,90.598 252.951,90.230 251.733 C 90.085 251.257,89.458 250.689,88.836 250.473 C 88.214 250.256,87.180 249.296,86.538 248.339 L 85.370 246.600 74.897 246.400 C 65.706 246.224,64.325 246.115,63.612 245.504 C 62.805 244.812,62.800 244.547,62.800 198.185 L 62.800 151.562 63.851 150.587 L 64.903 149.613 75.351 149.507 L 85.799 149.400 86.567 147.967 C 86.989 147.179,87.979 146.189,88.767 145.767 C 91.171 144.480,91.075 140.661,88.608 139.484 C 87.762 139.081,86.931 138.263,86.545 137.455 C 86.171 136.668,85.332 135.829,84.545 135.455 C 83.760 135.080,82.920 134.241,82.546 133.455 C 82.174 132.676,81.369 131.868,80.650 131.551 C 79.953 131.244,79.134 130.436,78.800 129.725 C 78.470 129.024,77.570 128.120,76.800 127.717 C 76.029 127.313,75.131 126.403,74.800 125.690 C 74.426 124.882,73.642 124.144,72.715 123.727 C 71.649 123.248,71.058 122.629,70.619 121.530 C 70.214 120.520,69.752 120.000,69.258 120.000 C 68.290 120.000,66.400 118.110,66.400 117.142 C 66.400 116.648,65.880 116.186,64.870 115.781 C 63.771 115.342,63.152 114.751,62.673 113.685 C 62.256 112.758,61.518 111.974,60.710 111.600 C 59.997 111.269,59.087 110.371,58.683 109.600 C 58.280 108.830,57.376 107.930,56.675 107.600 C 55.974 107.270,55.159 106.453,54.864 105.784 C 54.569 105.115,53.669 104.215,52.864 103.784 C 52.042 103.344,51.158 102.452,50.849 101.750 C 50.532 101.031,49.724 100.226,48.945 99.854 C 48.159 99.480,47.320 98.640,46.945 97.855 C 46.571 97.068,45.732 96.229,44.945 95.855 C 44.160 95.480,43.320 94.641,42.946 93.855 C 42.577 93.082,41.767 92.265,41.057 91.951 C 40.374 91.648,39.541 90.860,39.207 90.200 C 38.387 88.579,37.669 88.064,37.067 88.667 " stroke="none" fill="#fcfcfc" fill-rule="evenodd"></path><path id="path1" d="M0.000 25.400 L 0.000 50.800 1.226 50.800 C 2.902 50.800,3.764 51.333,4.726 52.965 C 5.176 53.727,6.093 54.635,6.765 54.982 C 7.437 55.329,8.265 56.151,8.604 56.808 C 8.944 57.466,9.912 58.460,10.754 59.017 C 11.596 59.574,12.484 60.467,12.728 61.001 C 12.971 61.534,13.896 62.430,14.785 62.990 C 15.673 63.551,16.400 64.278,16.400 64.606 C 16.400 64.933,17.300 65.848,18.400 66.638 C 19.500 67.428,20.400 68.328,20.400 68.638 C 20.400 68.948,21.280 69.833,22.355 70.606 C 23.430 71.378,24.402 72.363,24.515 72.795 C 24.627 73.226,25.382 73.970,26.192 74.448 C 27.001 74.926,28.115 76.031,28.666 76.905 C 29.217 77.778,30.011 78.582,30.429 78.692 C 30.848 78.801,31.822 79.770,32.594 80.845 C 33.367 81.920,34.203 82.800,34.453 82.800 C 35.158 82.800,36.799 84.906,36.800 85.812 C 36.800 86.344,37.207 86.778,37.980 87.070 C 38.629 87.315,39.499 88.072,39.912 88.752 C 40.326 89.432,41.400 90.521,42.298 91.172 C 43.197 91.823,44.047 92.717,44.187 93.158 C 44.327 93.599,45.053 94.338,45.800 94.800 C 46.548 95.262,47.516 96.216,47.952 96.920 C 48.388 97.624,49.284 98.517,49.943 98.905 C 50.602 99.293,51.510 100.207,51.961 100.937 C 52.412 101.666,53.235 102.470,53.791 102.723 C 54.347 102.976,55.131 103.725,55.533 104.386 C 55.935 105.048,57.015 106.132,57.932 106.797 C 58.850 107.461,59.600 108.175,59.600 108.382 C 59.600 108.920,61.408 110.800,61.926 110.800 C 62.164 110.800,62.863 111.475,63.480 112.300 C 64.820 114.095,65.191 114.465,66.217 115.034 C 66.648 115.273,67.354 115.999,67.787 116.648 C 68.220 117.296,69.104 118.180,69.752 118.613 C 70.401 119.046,71.127 119.752,71.366 120.183 C 71.935 121.209,72.305 121.580,74.100 122.920 C 74.925 123.537,75.600 124.219,75.600 124.437 C 75.600 124.979,76.804 126.189,77.921 126.771 C 78.428 127.035,79.163 127.777,79.554 128.420 C 79.945 129.063,81.000 130.121,81.898 130.772 C 82.797 131.423,83.647 132.317,83.787 132.758 C 83.927 133.199,84.660 133.942,85.415 134.410 C 86.171 134.877,87.107 135.798,87.495 136.457 C 87.883 137.116,88.789 138.020,89.510 138.466 C 90.915 139.337,92.000 141.046,92.000 142.390 C 92.000 142.909,92.378 143.364,93.010 143.604 C 93.566 143.815,94.142 144.306,94.290 144.694 C 94.654 145.648,95.767 146.808,96.839 147.352 C 97.325 147.599,97.919 148.150,98.161 148.578 C 98.787 149.687,99.615 150.530,101.056 151.525 C 101.746 152.001,102.413 152.798,102.538 153.296 C 102.663 153.793,103.402 154.543,104.179 154.961 C 104.957 155.380,105.951 156.329,106.388 157.070 C 106.825 157.811,107.789 158.775,108.530 159.212 C 109.271 159.649,110.220 160.643,110.639 161.421 C 111.057 162.198,111.807 162.937,112.304 163.062 C 112.802 163.187,113.599 163.854,114.075 164.544 C 115.070 165.985,115.913 166.813,117.022 167.439 C 117.450 167.681,118.001 168.275,118.248 168.761 C 118.732 169.715,119.794 170.744,121.009 171.435 C 121.430 171.675,122.064 172.395,122.418 173.035 C 122.772 173.676,123.451 174.396,123.928 174.636 C 125.283 175.317,126.307 176.377,126.552 177.352 C 126.678 177.854,127.349 178.498,128.083 178.823 C 128.802 179.140,129.580 179.786,129.811 180.257 C 130.452 181.564,131.200 182.355,132.314 182.903 C 132.871 183.176,133.523 183.750,133.763 184.178 C 134.447 185.397,135.477 186.464,136.439 186.952 C 136.925 187.199,137.519 187.750,137.761 188.178 C 138.387 189.287,139.215 190.130,140.656 191.125 C 141.346 191.601,142.013 192.398,142.138 192.896 C 142.263 193.393,143.002 194.143,143.779 194.561 C 144.557 194.980,145.551 195.929,145.988 196.670 C 146.425 197.411,147.389 198.375,148.130 198.812 C 148.871 199.249,149.820 200.243,150.239 201.021 C 150.657 201.798,151.407 202.537,151.904 202.662 C 152.402 202.787,153.199 203.454,153.675 204.144 C 154.670 205.585,155.513 206.413,156.622 207.039 C 157.050 207.281,157.601 207.875,157.848 208.361 C 158.336 209.323,159.403 210.353,160.622 211.037 C 161.050 211.277,161.624 211.929,161.897 212.486 C 162.445 213.600,163.236 214.348,164.543 214.989 C 165.014 215.220,165.660 215.998,165.977 216.717 C 166.302 217.451,166.946 218.122,167.448 218.248 C 168.423 218.493,169.483 219.517,170.164 220.872 C 170.404 221.349,171.140 222.035,171.800 222.398 C 172.460 222.760,173.224 223.516,173.497 224.077 C 174.034 225.179,174.814 225.929,176.103 226.584 C 176.553 226.813,177.119 227.350,177.361 227.778 C 177.987 228.887,178.815 229.730,180.256 230.725 C 180.946 231.201,181.613 231.998,181.738 232.496 C 181.863 232.993,182.602 233.743,183.379 234.161 C 184.157 234.580,185.151 235.529,185.588 236.270 C 186.025 237.011,187.010 237.987,187.777 238.439 C 188.629 238.942,189.364 239.798,189.669 240.641 C 189.979 241.497,190.364 241.941,190.684 241.811 C 190.968 241.695,191.437 241.503,191.727 241.385 C 192.338 241.136,194.398 242.632,194.404 243.329 C 194.406 243.588,194.881 244.160,195.458 244.600 C 196.035 245.040,197.107 246.030,197.840 246.800 C 198.573 247.570,199.455 248.470,199.801 248.800 C 200.545 249.509,202.351 251.311,203.200 252.191 C 203.530 252.533,204.430 253.443,205.200 254.213 C 205.970 254.983,206.912 255.925,207.293 256.307 C 207.675 256.688,208.575 257.588,209.293 258.307 C 210.012 259.025,210.927 259.925,211.327 260.307 C 211.727 260.688,212.666 261.630,213.413 262.400 C 214.161 263.170,215.003 264.018,215.286 264.285 C 215.949 264.909,218.027 266.987,218.800 267.799 C 219.130 268.145,220.030 269.007,220.800 269.716 C 221.570 270.424,222.560 271.453,223.000 272.002 C 223.440 272.551,224.160 273.195,224.600 273.434 C 225.040 273.673,225.754 274.399,226.187 275.048 C 226.620 275.696,227.504 276.580,228.152 277.013 C 228.801 277.446,229.527 278.152,229.766 278.583 C 230.335 279.609,230.705 279.980,232.500 281.320 C 233.325 281.937,234.002 282.657,234.004 282.920 C 234.006 283.184,234.481 283.760,235.058 284.200 C 235.635 284.640,236.707 285.630,237.440 286.400 C 238.173 287.170,239.003 288.018,239.286 288.285 C 239.889 288.853,242.217 291.177,242.915 291.907 C 243.182 292.185,244.072 293.085,244.893 293.907 C 245.715 294.728,246.615 295.628,246.893 295.907 C 247.172 296.185,248.072 297.085,248.893 297.907 C 249.715 298.728,250.672 299.670,251.020 300.000 C 251.369 300.330,252.266 301.230,253.013 302.000 C 253.761 302.770,254.603 303.618,254.886 303.885 C 255.550 304.511,257.889 306.850,258.515 307.514 C 258.782 307.797,259.631 308.607,260.403 309.314 C 261.175 310.021,262.163 311.095,262.598 311.700 C 263.034 312.305,263.619 312.800,263.899 312.800 C 264.179 312.800,264.890 313.478,265.480 314.306 C 266.070 315.135,267.101 316.172,267.771 316.611 C 268.442 317.051,269.349 317.958,269.789 318.629 C 270.228 319.299,271.265 320.330,272.094 320.920 C 272.922 321.510,273.602 322.219,273.604 322.496 C 273.606 322.773,274.081 323.360,274.658 323.800 C 275.235 324.240,276.307 325.230,277.040 326.000 C 277.773 326.770,278.629 327.644,278.944 327.942 C 279.617 328.581,281.683 330.643,282.458 331.449 C 282.756 331.759,283.672 332.685,284.493 333.507 C 285.315 334.328,286.257 335.270,286.587 335.600 C 286.917 335.930,287.775 336.788,288.493 337.507 C 289.212 338.225,290.127 339.125,290.527 339.507 C 290.927 339.888,291.866 340.830,292.613 341.600 C 293.361 342.370,294.229 343.244,294.544 343.542 C 295.281 344.241,297.359 346.319,298.058 347.056 C 298.356 347.371,299.231 348.207,300.003 348.914 C 300.775 349.621,301.763 350.695,302.198 351.300 C 302.634 351.905,303.219 352.400,303.499 352.400 C 303.779 352.400,304.490 353.078,305.080 353.906 C 305.670 354.735,306.701 355.772,307.371 356.211 C 308.042 356.651,308.949 357.558,309.389 358.229 C 309.828 358.899,310.865 359.930,311.694 360.520 C 312.522 361.110,313.200 361.918,313.200 362.316 C 313.200 362.787,313.717 363.226,314.685 363.576 C 316.315 364.166,316.485 364.310,318.120 366.500 C 318.737 367.325,319.499 368.000,319.815 368.000 C 320.131 368.000,320.841 368.715,321.393 369.589 C 321.944 370.462,322.915 371.446,323.550 371.774 C 324.184 372.102,325.073 372.996,325.524 373.761 C 325.975 374.525,326.875 375.425,327.524 375.761 C 328.173 376.096,329.073 376.996,329.524 377.761 C 329.975 378.525,330.893 379.435,331.565 379.782 C 332.237 380.129,333.065 380.951,333.405 381.609 C 333.745 382.266,334.738 383.256,335.611 383.807 C 336.485 384.359,337.200 385.069,337.200 385.385 C 337.200 385.701,337.875 386.463,338.700 387.080 C 340.724 388.592,341.200 389.066,341.200 389.572 C 341.200 389.808,342.080 390.633,343.155 391.406 C 344.230 392.178,345.199 393.152,345.308 393.571 C 345.418 393.989,346.240 394.794,347.136 395.360 C 348.955 396.508,349.600 397.454,349.600 398.974 L 349.600 400.000 374.800 400.000 L 400.000 400.000 400.000 382.600 L 400.000 365.200 398.661 365.200 C 397.365 365.200,395.600 364.113,395.600 363.314 C 395.600 362.681,394.270 361.336,393.358 361.049 C 392.896 360.903,392.200 360.195,391.813 359.476 C 391.426 358.757,390.500 357.769,389.757 357.282 C 389.013 356.794,388.006 355.787,387.518 355.043 C 387.031 354.300,386.043 353.374,385.324 352.987 C 384.605 352.600,383.897 351.904,383.751 351.442 C 383.464 350.530,382.119 349.200,381.486 349.200 C 381.005 349.200,379.600 347.625,379.600 347.086 C 379.600 346.613,378.029 345.200,377.503 345.200 C 377.035 345.200,375.631 343.548,375.613 342.977 C 375.606 342.744,374.787 341.981,373.793 341.280 C 372.799 340.580,371.788 339.572,371.546 339.041 C 371.304 338.510,370.524 337.762,369.812 337.379 C 369.100 336.995,368.205 336.100,367.821 335.388 C 367.438 334.676,366.690 333.896,366.159 333.654 C 365.628 333.412,364.620 332.401,363.920 331.407 C 363.219 330.413,362.456 329.594,362.223 329.587 C 361.652 329.569,360.000 328.165,360.000 327.697 C 360.000 327.201,358.602 325.604,358.153 325.587 C 357.356 325.557,356.030 324.027,355.701 322.758 C 355.493 321.956,355.058 321.345,354.636 321.264 C 353.740 321.091,352.400 319.964,352.400 319.383 C 352.400 318.967,350.617 317.200,350.197 317.200 C 349.940 317.200,348.400 315.660,348.400 315.403 C 348.400 314.983,346.633 313.200,346.217 313.200 C 345.650 313.200,344.555 311.918,344.220 310.863 C 344.077 310.411,343.653 309.943,343.280 309.823 C 342.244 309.491,340.546 307.898,340.260 306.992 C 340.119 306.548,339.360 305.837,338.571 305.413 C 337.783 304.988,336.884 304.150,336.574 303.550 C 336.264 302.950,335.301 301.951,334.434 301.330 C 333.568 300.708,332.566 299.706,332.208 299.103 C 331.851 298.499,331.166 297.796,330.687 297.540 C 329.588 296.952,329.048 296.412,328.460 295.313 C 328.204 294.834,327.501 294.149,326.897 293.792 C 326.294 293.434,325.292 292.432,324.670 291.566 C 324.049 290.699,323.050 289.736,322.450 289.426 C 321.850 289.116,321.027 288.245,320.621 287.490 C 320.214 286.736,319.297 285.803,318.582 285.418 C 317.867 285.033,316.948 284.099,316.541 283.342 C 316.133 282.585,315.426 281.871,314.970 281.757 C 314.513 281.642,313.883 281.168,313.570 280.704 C 312.777 279.530,310.966 277.600,310.657 277.600 C 310.283 277.600,308.800 276.058,308.800 275.670 C 308.800 275.224,307.045 273.600,306.563 273.600 C 306.043 273.600,304.941 272.275,304.620 271.263 C 304.477 270.811,304.053 270.343,303.680 270.223 C 302.177 269.741,300.829 268.123,300.568 266.488 C 300.366 265.226,300.109 264.815,299.463 264.722 C 298.971 264.650,298.255 263.946,297.739 263.023 C 297.238 262.129,296.285 261.177,295.534 260.822 C 294.806 260.479,294.144 259.838,294.062 259.399 C 293.811 258.045,293.156 257.546,291.974 257.806 C 291.114 257.995,290.671 257.820,289.937 257.001 C 288.088 254.937,287.345 254.188,286.365 253.400 C 285.818 252.960,285.052 252.097,284.664 251.482 C 284.275 250.867,283.524 250.166,282.994 249.925 C 282.464 249.683,281.581 248.805,281.031 247.974 C 280.481 247.143,279.495 246.147,278.840 245.760 C 278.184 245.373,277.323 244.451,276.924 243.711 C 276.526 242.971,275.826 242.271,275.370 242.157 C 274.913 242.042,274.283 241.568,273.970 241.104 C 273.177 239.930,271.366 238.000,271.057 238.000 C 270.347 238.000,269.182 236.227,268.954 234.800 C 268.752 233.538,268.487 233.137,267.732 232.947 C 267.155 232.802,266.462 232.105,266.005 231.210 C 265.550 230.318,264.748 229.510,264.019 229.208 C 263.323 228.920,262.424 228.040,261.934 227.167 C 261.419 226.252,260.602 225.470,259.908 225.228 C 259.085 224.941,258.557 224.346,258.105 223.194 C 257.690 222.138,257.278 221.642,256.933 221.783 C 256.640 221.902,256.166 222.096,255.879 222.212 C 255.593 222.329,254.828 221.860,254.179 221.170 C 253.531 220.480,252.577 219.502,252.060 218.997 C 250.525 217.499,249.573 216.536,248.640 215.540 C 248.156 215.023,247.312 214.240,246.765 213.800 C 246.218 213.360,245.452 212.497,245.064 211.882 C 244.675 211.267,243.924 210.566,243.394 210.325 C 242.864 210.083,241.981 209.205,241.431 208.374 C 240.881 207.543,239.895 206.547,239.240 206.160 C 238.584 205.773,237.726 204.857,237.332 204.126 C 236.938 203.394,236.252 202.681,235.808 202.540 C 234.570 202.150,233.613 200.825,233.342 199.126 C 233.152 197.938,232.877 197.534,232.132 197.347 C 231.555 197.202,230.862 196.505,230.405 195.610 C 229.945 194.709,229.148 193.910,228.400 193.600 C 227.654 193.291,226.855 192.492,226.400 191.600 C 225.950 190.718,225.146 189.909,224.419 189.608 C 223.732 189.323,222.826 188.444,222.354 187.604 C 221.891 186.780,220.920 185.824,220.196 185.478 C 219.284 185.044,218.731 184.403,218.399 183.398 C 217.920 181.946,217.897 181.938,216.197 182.644 C 215.976 182.736,215.407 182.403,214.932 181.905 C 214.458 181.407,213.497 180.432,212.798 179.737 C 210.609 177.562,209.959 176.907,208.828 175.737 C 208.224 175.112,207.379 174.330,206.951 174.000 C 206.523 173.670,205.854 172.897,205.465 172.282 C 205.076 171.667,204.324 170.966,203.794 170.725 C 203.264 170.483,202.381 169.605,201.831 168.774 C 201.281 167.943,200.295 166.947,199.640 166.560 C 198.984 166.173,198.123 165.251,197.724 164.511 C 197.326 163.771,196.626 163.071,196.170 162.957 C 195.713 162.842,195.083 162.368,194.770 161.904 C 193.982 160.738,192.167 158.800,191.861 158.800 C 191.066 158.800,189.992 157.220,189.767 155.718 C 189.559 154.330,189.318 153.944,188.538 153.749 C 187.955 153.602,187.264 152.909,186.805 152.010 C 186.350 151.118,185.548 150.310,184.819 150.008 C 184.125 149.720,183.225 148.841,182.737 147.974 C 182.265 147.134,181.357 146.231,180.718 145.966 C 180.052 145.690,179.232 144.848,178.793 143.987 C 178.314 143.048,177.588 142.335,176.849 142.077 C 176.109 141.819,175.420 141.142,175.003 140.264 C 174.606 139.427,173.792 138.603,172.982 138.218 C 172.188 137.842,171.358 137.012,170.982 136.218 C 170.605 135.425,169.775 134.595,168.982 134.218 C 168.188 133.842,167.358 133.012,166.982 132.218 C 166.597 131.408,165.773 130.594,164.936 130.197 C 164.058 129.780,163.381 129.091,163.123 128.351 C 162.865 127.612,162.152 126.886,161.213 126.407 C 160.352 125.968,159.510 125.148,159.234 124.482 C 158.969 123.843,158.066 122.935,157.226 122.463 C 156.359 121.975,155.480 121.075,155.192 120.381 C 154.891 119.654,154.082 118.850,153.200 118.400 C 152.308 117.945,151.509 117.146,151.200 116.400 C 150.891 115.654,150.092 114.855,149.200 114.400 C 148.308 113.945,147.509 113.146,147.200 112.400 C 146.897 111.669,146.091 110.852,145.243 110.416 C 144.449 110.008,143.471 109.054,143.069 108.296 C 142.667 107.539,141.740 106.633,141.008 106.285 C 140.084 105.844,139.532 105.207,139.199 104.198 C 138.874 103.212,138.540 102.818,138.160 102.973 C 137.852 103.098,137.365 103.296,137.078 103.413 C 136.790 103.530,136.165 103.215,135.688 102.713 C 134.311 101.262,132.536 99.474,131.529 98.521 C 131.018 98.037,130.137 97.137,129.572 96.521 C 129.006 95.904,128.190 95.130,127.758 94.800 C 127.326 94.470,126.654 93.697,126.265 93.082 C 125.876 92.467,125.162 91.781,124.679 91.559 C 124.195 91.336,123.297 90.450,122.683 89.590 C 122.069 88.729,121.045 87.717,120.407 87.341 C 119.770 86.964,118.926 86.057,118.532 85.326 C 118.138 84.594,117.460 83.883,117.026 83.745 C 116.042 83.433,115.559 82.948,114.591 81.299 C 114.171 80.584,113.487 79.891,113.071 79.759 C 112.071 79.442,110.800 78.334,110.800 77.781 C 110.800 77.310,109.133 75.600,108.674 75.600 C 108.327 75.600,106.800 74.087,106.800 73.743 C 106.800 73.434,104.870 71.623,103.696 70.830 C 103.232 70.517,102.758 69.887,102.643 69.430 C 102.529 68.974,101.829 68.274,101.089 67.876 C 100.349 67.477,99.427 66.616,99.040 65.960 C 98.653 65.305,97.657 64.319,96.826 63.769 C 95.995 63.219,95.117 62.336,94.875 61.806 C 94.634 61.276,93.933 60.525,93.318 60.136 C 92.703 59.748,91.840 58.982,91.400 58.435 C 90.429 57.228,89.190 56.006,88.117 55.200 C 87.677 54.870,87.110 54.204,86.856 53.721 C 86.602 53.237,85.901 52.549,85.297 52.192 C 84.694 51.834,83.692 50.832,83.070 49.966 C 82.449 49.099,81.431 48.126,80.808 47.804 C 80.185 47.482,79.433 46.669,79.138 45.999 C 78.749 45.117,78.191 44.668,77.124 44.380 C 76.312 44.161,75.548 43.671,75.427 43.291 C 75.086 42.231,73.497 40.545,72.558 40.249 C 72.096 40.103,71.376 39.348,70.958 38.573 C 70.541 37.797,69.624 36.822,68.920 36.407 C 68.217 35.991,67.227 35.015,66.720 34.238 C 66.214 33.461,65.214 32.508,64.498 32.120 C 63.781 31.733,63.081 31.052,62.940 30.608 C 62.665 29.736,61.312 28.400,60.703 28.400 C 60.275 28.400,58.833 26.771,58.813 26.264 C 58.797 25.860,57.139 24.432,56.664 24.413 C 56.192 24.395,54.829 22.700,54.813 22.112 C 54.806 21.844,54.085 21.214,53.211 20.712 C 52.337 20.210,51.310 19.224,50.930 18.520 C 50.550 17.816,49.672 16.934,48.979 16.561 C 48.285 16.187,47.405 15.300,47.021 14.588 C 46.638 13.876,45.905 13.103,45.392 12.869 C 44.878 12.635,43.860 11.631,43.129 10.637 C 42.398 9.644,41.620 8.818,41.400 8.802 C 40.834 8.761,39.200 7.346,39.200 6.897 C 39.200 6.371,37.787 4.800,37.314 4.800 C 36.363 4.800,35.117 3.152,34.912 1.623 L 34.695 0.000 17.347 0.000 L 0.000 0.000 0.000 25.400 " stroke="none" fill="#cf20cf" fill-rule="evenodd"></path><path id="path2" d="M34.912 1.623 C 35.117 3.152,36.363 4.800,37.314 4.800 C 37.787 4.800,39.200 6.371,39.200 6.897 C 39.200 7.346,40.834 8.761,41.400 8.802 C 41.620 8.818,42.398 9.644,43.129 10.637 C 43.860 11.631,44.878 12.635,45.392 12.869 C 45.905 13.103,46.638 13.876,47.021 14.588 C 47.405 15.300,48.285 16.187,48.979 16.561 C 49.672 16.934,50.550 17.816,50.930 18.520 C 51.310 19.224,52.337 20.210,53.211 20.712 C 54.085 21.214,54.806 21.844,54.813 22.112 C 54.829 22.700,56.192 24.395,56.664 24.413 C 57.139 24.432,58.797 25.860,58.813 26.264 C 58.833 26.771,60.275 28.400,60.703 28.400 C 61.312 28.400,62.665 29.736,62.940 30.608 C 63.081 31.052,63.781 31.733,64.498 32.120 C 65.214 32.508,66.214 33.461,66.720 34.238 C 67.227 35.015,68.217 35.991,68.920 36.407 C 69.624 36.822,70.541 37.797,70.958 38.573 C 71.376 39.348,72.096 40.103,72.558 40.249 C 73.496 40.545,75.086 42.230,75.425 43.288 C 75.792 44.430,78.277 44.890,79.754 44.088 L 81.000 43.411 79.800 43.296 C 77.327 43.058,76.803 42.775,76.026 41.251 C 75.547 40.312,74.759 39.514,74.000 39.200 C 73.254 38.891,72.455 38.092,72.000 37.200 C 71.545 36.308,70.746 35.509,70.000 35.200 C 69.254 34.891,68.455 34.092,68.000 33.200 C 67.575 32.366,66.745 31.508,66.108 31.245 C 65.484 30.986,64.535 30.066,64.000 29.200 C 63.465 28.334,62.516 27.414,61.892 27.155 C 61.252 26.890,60.425 26.032,59.993 25.187 C 59.507 24.233,58.789 23.535,58.019 23.266 C 57.248 22.998,56.564 22.333,56.136 21.436 C 55.742 20.609,54.919 19.768,54.145 19.401 C 53.387 19.041,52.552 18.198,52.182 17.418 C 51.805 16.625,50.975 15.795,50.182 15.418 C 49.388 15.042,48.558 14.212,48.182 13.418 C 47.797 12.608,46.973 11.794,46.136 11.397 C 45.258 10.980,44.581 10.291,44.323 9.551 C 44.059 8.793,43.345 8.082,42.327 7.563 C 41.349 7.064,40.594 6.328,40.355 5.641 C 40.127 4.990,39.310 4.160,38.383 3.639 C 37.019 2.872,36.800 2.559,36.800 1.374 C 36.800 0.157,36.680 0.000,35.747 0.000 C 34.748 0.000,34.706 0.082,34.912 1.623 M0.000 51.600 C 0.000 52.215,0.267 52.400,1.151 52.400 C 2.309 52.400,3.010 52.967,3.792 54.535 C 4.025 55.002,4.616 55.584,5.105 55.828 C 6.478 56.512,7.506 57.570,7.752 58.552 C 7.878 59.054,8.549 59.698,9.283 60.023 C 10.002 60.340,10.780 60.986,11.011 61.457 C 11.652 62.764,12.400 63.555,13.514 64.103 C 14.071 64.376,14.723 64.950,14.963 65.378 C 15.647 66.597,16.677 67.664,17.639 68.152 C 18.125 68.399,18.719 68.950,18.961 69.378 C 19.591 70.495,20.416 71.331,21.900 72.356 C 22.615 72.850,23.200 73.511,23.200 73.825 C 23.200 74.138,23.929 74.923,24.821 75.569 C 25.712 76.215,26.844 77.341,27.336 78.071 C 27.827 78.802,28.719 79.635,29.316 79.922 C 29.913 80.209,30.806 81.159,31.301 82.033 C 31.795 82.906,32.609 83.727,33.109 83.856 C 34.407 84.192,35.199 85.524,35.209 87.389 L 35.218 89.000 36.000 88.000 C 37.311 86.324,36.263 82.800,34.453 82.800 C 34.203 82.800,33.367 81.920,32.594 80.845 C 31.822 79.770,30.848 78.801,30.429 78.692 C 30.011 78.582,29.217 77.778,28.666 76.905 C 28.115 76.031,27.001 74.926,26.192 74.448 C 25.382 73.970,24.627 73.226,24.515 72.795 C 24.402 72.363,23.430 71.378,22.355 70.606 C 21.280 69.833,20.400 68.948,20.400 68.638 C 20.400 68.328,19.500 67.428,18.400 66.638 C 17.300 65.848,16.400 64.933,16.400 64.606 C 16.400 64.278,15.673 63.551,14.785 62.990 C 13.896 62.430,12.971 61.534,12.728 61.001 C 12.484 60.467,11.596 59.574,10.754 59.017 C 9.912 58.460,8.944 57.466,8.604 56.808 C 8.265 56.151,7.437 55.329,6.765 54.982 C 6.093 54.635,5.176 53.727,4.726 52.965 C 3.416 50.743,0.000 49.757,0.000 51.600 M175.306 65.561 C 174.698 66.436,173.642 67.458,172.959 67.835 C 172.277 68.211,171.390 69.128,170.988 69.874 C 170.587 70.620,169.702 71.494,169.023 71.816 C 168.343 72.138,167.364 73.087,166.847 73.924 C 166.329 74.761,165.374 75.682,164.723 75.970 C 164.073 76.258,163.331 76.967,163.075 77.547 C 162.495 78.859,162.067 79.291,160.795 79.853 C 160.243 80.096,159.523 80.814,159.195 81.448 C 158.440 82.909,158.047 83.300,156.763 83.867 C 156.193 84.119,155.440 84.927,155.089 85.663 C 154.739 86.398,153.829 87.333,153.067 87.741 C 152.305 88.148,151.357 89.085,150.961 89.821 C 150.564 90.558,149.672 91.466,148.979 91.839 C 148.285 92.213,147.391 93.126,146.991 93.869 C 146.591 94.611,145.884 95.314,145.420 95.431 C 144.956 95.547,144.041 96.440,143.388 97.415 C 142.735 98.390,141.867 99.299,141.461 99.434 C 138.380 100.456,138.130 105.128,141.090 106.355 C 141.750 106.628,142.661 107.527,143.137 108.374 C 143.625 109.241,144.525 110.120,145.219 110.408 C 145.946 110.709,146.750 111.518,147.200 112.400 C 147.655 113.292,148.454 114.091,149.200 114.400 C 149.946 114.709,150.745 115.508,151.200 116.400 C 151.655 117.292,152.454 118.091,153.200 118.400 C 153.931 118.703,154.748 119.509,155.184 120.357 C 155.592 121.151,156.559 122.136,157.334 122.547 C 158.109 122.959,158.961 123.823,159.228 124.469 C 159.510 125.148,160.345 125.964,161.213 126.407 C 162.152 126.886,162.865 127.612,163.123 128.351 C 163.381 129.091,164.058 129.780,164.936 130.197 C 165.773 130.594,166.597 131.408,166.982 132.218 C 167.358 133.012,168.188 133.842,168.982 134.218 C 169.775 134.595,170.605 135.425,170.982 136.218 C 171.358 137.012,172.188 137.842,172.982 138.218 C 173.792 138.603,174.606 139.427,175.003 140.264 C 175.420 141.142,176.109 141.819,176.849 142.077 C 177.588 142.335,178.314 143.048,178.793 143.987 C 179.232 144.848,180.052 145.690,180.718 145.966 C 181.357 146.231,182.265 147.134,182.737 147.974 C 183.225 148.841,184.125 149.720,184.819 150.008 C 185.560 150.315,186.352 151.122,186.829 152.057 C 187.262 152.906,187.778 153.600,187.975 153.600 C 188.173 153.600,188.619 153.709,188.967 153.843 C 189.651 154.105,189.967 69.996,189.286 68.925 C 189.120 68.664,188.512 68.271,187.936 68.052 C 187.360 67.833,186.367 66.877,185.730 65.927 L 184.572 64.200 180.492 64.086 L 176.412 63.972 175.306 65.561 M277.858 97.573 C 277.057 98.688,276.159 99.600,275.863 99.600 C 273.951 99.600,273.205 104.428,274.875 105.984 C 275.357 106.433,275.910 106.800,276.104 106.800 C 277.320 106.800,277.803 108.232,277.912 112.171 C 278.058 117.421,278.163 117.805,279.611 118.404 C 281.407 119.149,282.000 120.257,282.000 122.870 C 282.000 124.894,282.123 125.247,283.048 125.881 C 285.855 127.807,286.000 128.148,286.000 132.831 L 286.000 137.146 287.300 138.037 C 289.810 139.759,289.981 140.195,289.991 144.888 L 290.000 149.176 291.580 150.086 C 293.696 151.303,294.000 152.147,294.000 156.798 L 294.000 160.759 295.500 161.877 C 297.621 163.459,297.587 163.357,297.594 168.080 L 297.600 172.359 299.100 173.457 C 301.723 175.376,301.600 174.665,301.600 187.876 C 301.600 200.555,301.747 201.600,303.530 201.600 C 305.968 201.600,305.891 204.959,303.414 206.705 L 301.600 207.984 301.600 218.371 L 301.600 228.759 300.100 229.880 C 299.275 230.496,298.375 231.212,298.100 231.471 C 297.742 231.809,297.600 233.691,297.600 238.095 C 297.600 244.725,297.577 244.808,295.300 246.365 L 294.000 247.254 294.000 251.433 C 294.000 253.993,293.814 255.909,293.519 256.381 C 293.160 256.956,293.151 257.385,293.483 258.075 C 293.727 258.584,294.031 259.324,294.158 259.719 C 294.286 260.114,294.927 260.625,295.584 260.854 C 296.346 261.120,297.111 261.874,297.696 262.936 C 299.242 265.744,300.399 265.484,300.405 262.328 C 300.413 258.821,300.614 258.350,302.629 257.115 L 304.400 256.031 304.400 251.669 C 304.400 247.186,305.065 245.200,306.567 245.200 C 307.950 245.200,308.400 243.813,308.400 239.558 C 308.400 235.321,308.905 233.600,310.147 233.600 C 310.423 233.600,311.043 233.233,311.525 232.784 L 312.400 231.969 312.400 204.246 C 312.400 174.553,312.416 174.800,310.482 174.800 C 308.898 174.800,308.400 172.828,308.400 166.562 C 308.400 160.293,307.995 158.800,306.296 158.800 C 305.080 158.800,304.597 157.368,304.488 153.429 C 304.342 148.179,304.237 147.795,302.789 147.196 C 300.716 146.337,300.400 145.483,300.400 140.730 C 300.400 136.549,300.373 136.419,299.352 135.719 C 296.881 134.024,296.400 133.217,296.400 130.769 C 296.400 128.607,296.314 128.396,295.100 127.563 C 292.592 125.842,292.419 125.403,292.409 120.733 L 292.400 116.465 290.900 115.554 C 288.806 114.281,288.813 114.303,288.805 109.400 L 288.798 105.000 287.005 103.800 C 286.019 103.140,285.101 102.267,284.966 101.861 C 284.653 100.915,283.490 99.750,282.539 99.429 C 282.133 99.292,281.241 98.362,280.557 97.363 L 279.314 95.546 277.858 97.573 M246.150 113.412 C 245.707 114.188,244.726 115.154,243.972 115.558 L 242.600 116.293 242.487 120.718 C 242.375 125.111,242.382 125.149,243.435 125.872 C 246.258 127.810,246.400 128.144,246.400 132.831 L 246.400 137.146 247.700 138.037 C 250.331 139.842,250.381 140.003,250.391 146.684 C 250.400 152.859,250.813 154.400,252.460 154.400 C 253.991 154.400,254.400 156.098,254.400 162.457 L 254.400 168.763 255.438 169.481 C 258.186 171.384,258.000 170.334,258.000 183.912 C 258.000 196.040,258.013 196.232,258.856 196.812 C 261.879 198.890,262.000 199.093,262.000 202.066 C 262.000 204.475,261.876 204.964,261.100 205.612 C 260.605 206.025,259.711 206.777,259.114 207.282 L 258.027 208.200 257.943 215.600 C 257.851 223.675,258.040 224.577,259.967 225.248 C 260.600 225.469,261.440 226.289,261.934 227.167 C 262.424 228.040,263.323 228.920,264.019 229.208 C 264.760 229.515,265.552 230.322,266.029 231.257 C 266.462 232.106,266.978 232.800,267.175 232.800 C 267.373 232.800,267.819 232.909,268.167 233.043 C 268.814 233.291,269.195 173.896,268.558 172.235 C 268.425 171.888,267.629 171.218,266.790 170.746 C 264.820 169.639,264.812 169.597,264.805 160.316 C 264.800 152.007,264.513 150.800,262.547 150.800 C 261.294 150.800,260.800 149.082,260.800 144.730 C 260.800 140.549,260.773 140.419,259.752 139.719 C 256.791 137.688,256.800 137.715,256.800 130.728 L 256.800 124.373 255.433 123.566 C 253.453 122.398,252.800 121.174,252.800 118.626 C 252.800 116.475,252.763 116.403,251.200 115.512 C 250.319 115.010,249.486 114.248,249.347 113.819 C 248.651 111.663,247.252 111.485,246.150 113.412 M92.000 144.158 C 92.000 145.136,90.393 147.021,89.252 147.384 C 88.885 147.500,88.234 148.246,87.806 149.040 C 86.689 151.114,86.190 151.200,75.263 151.200 C 65.854 151.200,65.345 151.239,64.689 152.005 C 63.528 153.361,63.636 243.236,64.800 244.400 C 65.558 245.158,66.133 245.200,75.724 245.200 C 86.736 245.200,86.243 245.102,88.123 247.673 C 88.715 248.483,89.551 249.257,89.980 249.394 C 90.409 249.530,91.138 250.253,91.600 251.000 C 92.062 251.748,93.052 252.738,93.800 253.200 C 94.547 253.662,95.273 254.401,95.413 254.842 C 95.553 255.283,96.403 256.177,97.302 256.828 C 98.200 257.479,99.257 258.540,99.650 259.186 C 100.043 259.832,100.910 260.643,101.576 260.987 C 102.242 261.332,103.065 262.151,103.405 262.809 C 103.745 263.466,104.751 264.464,105.640 265.025 C 106.530 265.587,107.432 266.546,107.645 267.157 C 107.873 267.812,108.588 268.532,109.388 268.914 C 110.190 269.296,111.012 270.127,111.403 270.949 C 111.800 271.786,112.614 272.600,113.451 272.997 C 114.273 273.388,115.104 274.210,115.486 275.012 C 115.868 275.812,116.588 276.527,117.243 276.755 C 117.854 276.968,118.813 277.870,119.375 278.760 C 119.936 279.649,120.934 280.655,121.591 280.995 C 122.249 281.335,123.068 282.158,123.413 282.824 C 123.757 283.490,124.568 284.357,125.214 284.750 C 125.860 285.143,126.921 286.200,127.572 287.098 C 128.223 287.997,129.117 288.847,129.558 288.987 C 129.999 289.127,130.738 289.853,131.200 290.600 C 131.662 291.348,132.652 292.338,133.400 292.800 C 134.147 293.262,134.873 294.001,135.013 294.442 C 135.153 294.883,136.003 295.777,136.902 296.428 C 137.800 297.079,138.857 298.140,139.250 298.786 C 139.643 299.432,140.510 300.243,141.176 300.587 C 141.842 300.932,142.665 301.751,143.005 302.409 C 143.345 303.066,144.351 304.064,145.240 304.625 C 146.130 305.187,147.032 306.146,147.245 306.757 C 147.473 307.412,148.188 308.132,148.988 308.514 C 149.790 308.896,150.612 309.727,151.003 310.549 C 151.394 311.374,152.213 312.200,153.018 312.582 C 153.798 312.952,154.641 313.787,155.001 314.547 C 155.365 315.312,156.169 316.106,156.914 316.434 C 157.652 316.759,158.535 317.625,158.985 318.467 C 159.417 319.273,160.354 320.211,161.067 320.551 C 161.780 320.892,162.651 321.725,163.001 322.403 C 163.352 323.081,164.168 323.957,164.814 324.350 C 165.460 324.743,166.521 325.800,167.172 326.698 C 167.823 327.597,168.717 328.447,169.158 328.587 C 169.599 328.727,170.342 329.460,170.810 330.215 C 171.277 330.971,172.188 331.902,172.836 332.285 C 173.483 332.667,174.463 333.660,175.012 334.490 L 176.011 336.000 180.353 336.000 L 184.694 336.000 185.745 334.411 C 186.323 333.537,187.316 332.554,187.950 332.226 C 189.673 331.335,189.600 333.350,189.600 286.941 C 189.600 262.184,189.754 243.258,189.958 242.874 C 190.533 241.791,189.325 239.353,187.756 238.427 C 187.001 237.982,186.025 237.011,185.588 236.270 C 185.151 235.529,184.157 234.580,183.379 234.161 C 182.602 233.743,181.863 232.993,181.738 232.496 C 181.613 231.998,180.946 231.201,180.256 230.725 C 178.813 229.729,177.985 228.885,177.363 227.778 C 177.123 227.350,176.471 226.776,175.914 226.503 C 174.814 225.962,174.063 225.176,173.416 223.888 C 173.187 223.433,172.460 222.764,171.800 222.400 C 171.140 222.036,170.404 221.349,170.164 220.872 C 169.483 219.517,168.423 218.493,167.448 218.248 C 166.944 218.121,166.303 217.452,165.977 216.712 C 165.660 215.990,164.928 215.176,164.351 214.903 C 163.225 214.369,162.478 213.601,161.816 212.297 C 161.587 211.847,161.050 211.281,160.622 211.039 C 159.400 210.350,158.335 209.321,157.848 208.361 C 157.601 207.875,157.050 207.281,156.622 207.039 C 155.513 206.413,154.670 205.585,153.675 204.144 C 153.199 203.454,152.402 202.787,151.904 202.662 C 151.407 202.537,150.657 201.798,150.239 201.021 C 149.820 200.243,148.871 199.249,148.130 198.812 C 147.389 198.375,146.425 197.411,145.988 196.670 C 145.551 195.929,144.557 194.980,143.779 194.561 C 143.002 194.143,142.263 193.393,142.138 192.896 C 142.013 192.398,141.346 191.601,140.656 191.125 C 139.215 190.130,138.387 189.287,137.761 188.178 C 137.519 187.750,136.925 187.199,136.439 186.952 C 135.477 186.464,134.447 185.397,133.763 184.178 C 133.523 183.750,132.871 183.176,132.314 182.903 C 131.200 182.355,130.452 181.564,129.811 180.257 C 129.580 179.786,128.802 179.140,128.083 178.823 C 127.349 178.498,126.678 177.854,126.552 177.352 C 126.307 176.377,125.283 175.317,123.928 174.636 C 123.451 174.396,122.772 173.676,122.418 173.035 C 122.064 172.395,121.430 171.675,121.009 171.435 C 119.794 170.744,118.732 169.715,118.248 168.761 C 118.001 168.275,117.450 167.681,117.022 167.439 C 115.913 166.813,115.070 165.985,114.075 164.544 C 113.599 163.854,112.802 163.187,112.304 163.062 C 111.807 162.937,111.057 162.198,110.639 161.421 C 110.220 160.643,109.271 159.649,108.530 159.212 C 107.789 158.775,106.825 157.811,106.388 157.070 C 105.951 156.329,104.957 155.380,104.179 154.961 C 103.402 154.543,102.663 153.793,102.538 153.296 C 102.413 152.798,101.746 152.001,101.056 151.525 C 99.615 150.530,98.787 149.687,98.161 148.578 C 97.919 148.150,97.325 147.599,96.839 147.352 C 95.891 146.871,94.854 145.805,94.181 144.617 C 93.463 143.350,92.000 143.042,92.000 144.158 M214.710 144.969 C 214.216 145.722,213.270 146.654,212.606 147.039 C 210.860 148.053,210.813 148.201,210.806 152.671 C 210.800 156.630,211.203 158.000,212.374 158.000 C 214.231 158.000,214.800 159.983,214.800 166.449 L 214.800 172.789 216.407 173.852 C 218.312 175.113,218.580 175.951,218.292 179.753 C 218.031 183.210,218.597 184.853,220.291 185.555 C 220.950 185.828,221.862 186.728,222.337 187.574 C 222.825 188.441,223.725 189.320,224.419 189.608 C 225.146 189.909,225.950 190.718,226.400 191.600 C 226.855 192.492,227.654 193.291,228.400 193.600 C 229.161 193.915,229.947 194.713,230.429 195.657 C 230.862 196.506,231.378 197.200,231.575 197.200 C 231.773 197.200,232.219 197.309,232.567 197.443 C 233.681 197.870,233.463 192.276,232.325 191.216 C 231.843 190.767,231.223 190.400,230.947 190.400 C 229.475 190.400,229.200 188.844,229.200 180.511 C 229.200 172.206,228.936 170.857,227.300 170.787 C 225.669 170.718,225.404 169.700,225.200 162.722 L 225.000 155.876 223.469 155.083 C 221.705 154.168,221.200 153.128,221.200 150.403 C 221.200 148.398,220.660 147.463,219.242 147.013 C 218.828 146.882,218.017 146.060,217.439 145.187 C 216.157 143.250,215.853 143.225,214.710 144.969 M355.911 320.660 C 354.804 321.767,356.514 325.525,358.153 325.587 C 358.602 325.604,360.000 327.201,360.000 327.697 C 360.000 328.165,361.652 329.569,362.223 329.587 C 362.456 329.594,363.219 330.413,363.920 331.407 C 364.620 332.401,365.628 333.412,366.159 333.654 C 366.690 333.896,367.438 334.676,367.821 335.388 C 368.205 336.100,369.100 336.995,369.812 337.379 C 370.524 337.762,371.304 338.510,371.546 339.041 C 371.788 339.572,372.799 340.580,373.793 341.280 C 374.787 341.981,375.606 342.744,375.613 342.977 C 375.631 343.548,377.035 345.200,377.503 345.200 C 378.029 345.200,379.600 346.613,379.600 347.086 C 379.600 347.625,381.005 349.200,381.486 349.200 C 382.119 349.200,383.464 350.530,383.751 351.442 C 383.897 351.904,384.605 352.600,385.324 352.987 C 386.043 353.374,387.031 354.300,387.518 355.043 C 388.006 355.787,389.013 356.794,389.757 357.282 C 390.500 357.769,391.426 358.757,391.813 359.476 C 392.200 360.195,392.896 360.903,393.358 361.049 C 394.270 361.336,395.600 362.681,395.600 363.314 C 395.600 364.113,397.365 365.200,398.661 365.200 C 399.733 365.200,400.000 365.041,400.000 364.400 C 400.000 363.777,399.733 363.600,398.794 363.600 C 397.816 363.600,397.464 363.343,396.940 362.244 C 396.582 361.492,395.626 360.513,394.796 360.046 C 393.956 359.574,393.077 358.668,392.792 357.981 C 392.491 357.254,391.682 356.450,390.800 356.000 C 389.908 355.545,389.109 354.746,388.800 354.000 C 388.497 353.269,387.691 352.452,386.843 352.016 C 386.049 351.608,385.064 350.641,384.653 349.866 C 384.241 349.091,383.385 348.243,382.750 347.979 C 382.115 347.716,381.208 346.811,380.734 345.967 C 380.237 345.083,379.400 344.269,378.759 344.045 C 378.072 343.806,377.336 343.051,376.837 342.073 C 376.318 341.055,375.607 340.341,374.849 340.077 C 374.116 339.822,373.421 339.144,373.016 338.291 C 372.657 337.535,371.877 336.665,371.282 336.358 C 370.687 336.051,370.020 335.620,369.800 335.400 C 369.580 335.180,369.149 334.513,368.842 333.918 C 368.535 333.323,367.665 332.543,366.909 332.184 C 366.056 331.779,365.378 331.084,365.123 330.351 C 364.859 329.593,364.145 328.882,363.127 328.363 C 362.103 327.840,361.396 327.133,361.127 326.363 C 360.861 325.600,360.154 324.887,359.160 324.379 C 357.852 323.712,357.567 323.336,357.351 321.985 C 357.048 320.090,356.753 319.818,355.911 320.660 M312.645 363.951 C 311.876 364.800,312.364 365.200,314.171 365.200 C 315.073 365.200,316.400 366.307,316.400 367.059 C 316.400 367.482,317.762 368.714,319.031 369.439 C 319.454 369.681,319.987 370.247,320.216 370.697 C 320.871 371.986,321.621 372.766,322.723 373.303 C 323.284 373.576,324.039 374.340,324.400 375.000 C 324.761 375.660,325.516 376.424,326.077 376.697 C 327.184 377.237,327.934 378.019,328.584 379.312 C 328.813 379.767,329.540 380.435,330.200 380.798 C 330.860 381.160,331.624 381.916,331.897 382.477 C 332.434 383.579,333.214 384.329,334.503 384.984 C 334.953 385.213,335.519 385.750,335.761 386.178 C 336.465 387.425,337.487 388.470,338.479 388.957 C 338.985 389.206,339.640 389.952,339.934 390.615 C 340.227 391.278,341.162 392.221,342.012 392.710 C 342.861 393.198,343.793 394.094,344.083 394.699 C 344.373 395.304,345.283 396.235,346.105 396.767 C 347.252 397.509,347.600 397.998,347.600 398.867 C 347.600 399.809,347.769 400.000,348.600 400.000 C 350.689 400.000,349.745 397.006,347.136 395.360 C 346.240 394.794,345.418 393.989,345.308 393.571 C 345.199 393.152,344.230 392.178,343.155 391.406 C 342.080 390.633,341.200 389.808,341.200 389.572 C 341.200 389.066,340.724 388.592,338.700 387.080 C 337.875 386.463,337.200 385.701,337.200 385.385 C 337.200 385.069,336.485 384.359,335.611 383.807 C 334.738 383.256,333.754 382.285,333.426 381.650 C 333.098 381.016,332.204 380.127,331.439 379.676 C 330.675 379.225,329.765 378.307,329.418 377.635 C 329.071 376.963,328.237 376.129,327.565 375.782 C 326.893 375.435,325.975 374.525,325.524 373.761 C 325.073 372.996,324.184 372.102,323.550 371.774 C 322.915 371.446,321.944 370.462,321.393 369.589 C 320.841 368.715,320.131 368.000,319.815 368.000 C 319.499 368.000,318.737 367.325,318.120 366.500 C 316.619 364.490,316.382 364.271,315.081 363.695 C 313.615 363.046,313.447 363.064,312.645 363.951 " stroke="none" fill="#a349a4" fill-rule="evenodd"></path><path id="path3" d="" stroke="none" fill="#c4ac100" fill-rule="evenodd"></path></g></svg>